<svg width="144" height="144" viewBox="0 0 144 144" fill="none" xmlns="http://www.w3.org/2000/svg">
<rect x="3" y="11" width="138" height="121" rx="4" fill="#301D9A" style="fill:#301D9A;fill:color(display-p3 0.1882 0.1137 0.6039);fill-opacity:1;"/>
<path fill-rule="evenodd" clip-rule="evenodd" d="M13 32H132V123H13V32ZM71.8245 97.838H110.802V110.464H71.8245V97.838ZM63.1542 81.3607C69.6745 78.1034 74.1555 71.3395 74.1555 63.5236C74.1555 52.5297 65.2897 43.6174 54.3532 43.6174C43.4166 43.6174 34.5508 52.5297 34.5508 63.5236C34.5508 71.3395 39.0318 78.1034 45.5521 81.3607V109.972H63.1542V81.3607ZM60.9539 63.5236C60.9539 67.1883 57.9987 70.159 54.3532 70.159C50.7076 70.159 47.7524 67.1883 47.7524 63.5236C47.7524 59.859 50.7076 56.8882 54.3532 56.8882C57.9987 56.8882 60.9539 59.859 60.9539 63.5236Z" fill="white" style="fill:white;fill-opacity:1;"/>
</svg>
