<svg width="24" height="24" viewBox="0 0 24 24" fill="none" xmlns="http://www.w3.org/2000/svg">
<path d="M20.6121 14.4086L20.2135 14.1812L13.3413 18.1C12.5292 18.5631 11.5319 18.5631 10.7198 18.1L3.84818 14.1812L3.44954 14.4086C2.75304 14.8073 2.74935 15.812 3.44954 16.2084L10.7205 20.3534C11.5326 20.8164 12.5299 20.8164 13.3419 20.3534L20.6129 16.2084C21.3131 15.812 21.3094 14.8065 20.6129 14.4086H20.6121Z" fill="#3340CF"/>
<path d="M20.6121 14.4086L20.2135 14.1812L13.3413 18.1C12.5292 18.5631 11.5319 18.5631 10.7198 18.1L3.84818 14.1812L3.44954 14.4086C2.75304 14.8073 2.74935 15.812 3.44954 16.2084L10.7205 20.3534C11.5326 20.8164 12.5299 20.8164 13.3419 20.3534L20.6129 16.2084C21.3131 15.812 21.3094 14.8065 20.6129 14.4086H20.6121Z" fill="white" fill-opacity="0.7"/>
<path d="M20.6121 11.3947L20.2157 11.1687H20.2135L13.3413 15.0876C12.5292 15.5507 11.5318 15.5507 10.7198 15.0876L3.84817 11.1687H3.84594L3.44954 11.3947C2.75304 11.7948 2.74935 12.8003 3.44954 13.1967L3.84818 13.4227L10.7204 17.3415C11.5325 17.8046 12.5298 17.8046 13.3418 17.3415L20.2141 13.4227L20.6127 13.1967C21.3129 12.8003 21.3092 11.7948 20.6127 11.3947H20.6121Z" fill="#3340CF"/>
<path d="M20.6121 11.3947L20.2157 11.1687H20.2135L13.3413 15.0876C12.5292 15.5507 11.5318 15.5507 10.7198 15.0876L3.84817 11.1687H3.84594L3.44954 11.3947C2.75304 11.7948 2.74935 12.8003 3.44954 13.1967L3.84818 13.4227L10.7204 17.3415C11.5325 17.8046 12.5298 17.8046 13.3418 17.3415L20.2141 13.4227L20.6127 13.1967C21.3129 12.8003 21.3092 11.7948 20.6127 11.3947H20.6121Z" fill="white" fill-opacity="0.7"/>
<path d="M3.45013 10.1851L3.84653 10.4111H3.84875L10.721 14.3299C11.5331 14.793 12.5304 14.793 13.3424 14.3299L20.2146 10.4111H20.2169L20.6133 10.1851C21.3112 9.78868 21.3112 8.78173 20.6133 8.38531L13.3393 4.25154C12.5272 3.79067 11.5336 3.79067 10.7215 4.25154L3.44975 8.38455C2.75178 8.78095 2.75178 9.7879 3.44975 10.1843L3.45013 10.1851Z" fill="#3340CF"/>
</svg>
