<svg width="24" height="24" viewBox="0 0 24 24" fill="none" xmlns="http://www.w3.org/2000/svg">
<path d="M14 4.00018C15.1044 4.00028 15.9999 4.89577 16 6.00018V7.00018H8V6.00018C8.00011 4.89571 8.8955 4.00018 10 4.00018H14Z" fill="#3340CF"/>
<path d="M14 4.00018C15.1044 4.00028 15.9999 4.89577 16 6.00018V7.00018H8V6.00018C8.00011 4.89571 8.8955 4.00018 10 4.00018H14Z" fill="white" fill-opacity="0.7"/>
<path d="M2 12.0002H22V18.0002C22 19.1048 21.1046 20.0002 20 20.0002H4C2.89543 20.0002 2 19.1048 2 18.0002V12.0002Z" fill="#3340CF"/>
<path d="M2 12.0002H22V18.0002C22 19.1048 21.1046 20.0002 20 20.0002H4C2.89543 20.0002 2 19.1048 2 18.0002V12.0002Z" fill="white" fill-opacity="0.7"/>
<path d="M2 8.00018C2 6.89561 2.89543 6.00018 4 6.00018H20C21.1046 6.00018 22 6.89561 22 8.00018V12.0002C22 12.0002 17.9999 15.0002 12 15.0002C6.00012 15.0002 2 12.0002 2 12.0002L2 8.00018Z" fill="#3340CF"/>
<rect x="10" y="11" width="4" height="2" rx="1" fill="#3340CF"/>
<rect x="10" y="11" width="4" height="2" rx="1" fill="white" fill-opacity="0.7"/>
</svg>
