<svg width="24" height="24" viewBox="0 0 24 24" fill="none" xmlns="http://www.w3.org/2000/svg">
<path d="M21.7254 11.7944C21.7254 10.4501 21.4486 9.16518 20.9544 7.99885C20.8062 7.64302 20.4404 7.41568 20.055 7.41568H18.7404C16.7932 6.35808 15.3896 4.48997 12.9581 5.04348C12.5232 5.14232 11.5743 5.55746 11.2185 5.80456C10.3981 6.34819 8.68816 7.63314 7.89743 8.31514C6.91889 9.1553 6.67179 10.5094 7.79859 11.3298C9.45913 12.5555 10.8429 10.4501 12.2366 9.8373L18.1671 15.2637L18.6712 15.9853H20.1439C20.5393 15.9853 20.905 15.7579 21.0533 15.3823C21.4882 14.2654 21.7353 13.0595 21.7353 11.7845L21.7254 11.7944Z" fill="#3340CF"/>
<path d="M18.6615 15.9845L18.1574 15.263L12.2269 9.83654C10.8432 10.4494 9.45937 12.5547 7.78894 11.3291C6.67203 10.4988 6.91914 9.14465 7.88778 8.31438C8.67852 7.63238 10.3885 6.35732 11.2089 5.8038C8.5006 3.67871 3.93412 7.41492 3.93412 7.41492H3.63759C3.25211 7.41492 2.88639 7.63238 2.73813 7.99809C2.24392 9.16442 1.97705 10.4494 1.97705 11.7936C1.97705 13.0687 2.22416 14.2745 2.65906 15.3914C2.80732 15.7572 3.17304 15.9944 3.5684 15.9944L5.14987 16.0438C6.19759 16.795 8.24361 19.3649 9.38029 19.6515C10.4379 19.9085 11.2484 19.2858 11.6635 18.3468C12.7903 19.8492 14.9747 19.7504 15.3404 17.7538C16.319 18.7521 18.0092 18.7224 18.5923 17.3287C18.8592 16.6863 18.6418 16.5182 18.6714 15.9845H18.6615Z" fill="#3340CF"/>
<path d="M18.6615 15.9845L18.1574 15.263L12.2269 9.83654C10.8432 10.4494 9.45937 12.5547 7.78894 11.3291C6.67203 10.4988 6.91914 9.14465 7.88778 8.31438C8.67852 7.63238 10.3885 6.35732 11.2089 5.8038C8.5006 3.67871 3.93412 7.41492 3.93412 7.41492H3.63759C3.25211 7.41492 2.88639 7.63238 2.73813 7.99809C2.24392 9.16442 1.97705 10.4494 1.97705 11.7936C1.97705 13.0687 2.22416 14.2745 2.65906 15.3914C2.80732 15.7572 3.17304 15.9944 3.5684 15.9944L5.14987 16.0438C6.19759 16.795 8.24361 19.3649 9.38029 19.6515C10.4379 19.9085 11.2484 19.2858 11.6635 18.3468C12.7903 19.8492 14.9747 19.7504 15.3404 17.7538C16.319 18.7521 18.0092 18.7224 18.5923 17.3287C18.8592 16.6863 18.6418 16.5182 18.6714 15.9845H18.6615Z" fill="white" fill-opacity="0.7"/>
</svg>
