<svg width="24" height="24" viewBox="0 0 24 24" fill="none" xmlns="http://www.w3.org/2000/svg">
<path d="M3.00879 19.0004C3.00879 18.4481 3.4565 18.0004 4.00879 18.0004H20.0088C20.5611 18.0004 21.0088 18.4481 21.0088 19.0004V21.0004H3.00879V19.0004Z" fill="#3340CF"/>
<path d="M5.00879 9.00037H19.0088V18.0004H5.00879V9.00037Z" fill="#3340CF"/>
<path d="M10.9797 3.61776C11.6131 3.23774 12.4044 3.23774 13.0377 3.61776L20.8323 8.29452C21.1628 8.49281 21.0222 9.00037 20.6368 9.00037H3.38066C2.99525 9.00037 2.85467 8.49281 3.18515 8.29452L10.9797 3.61776Z" fill="#3340CF"/>
<rect x="13.0088" y="11.0004" width="3" height="7" fill="#3340CF"/>
<rect x="13.0088" y="11.0004" width="3" height="7" fill="white" fill-opacity="0.7"/>
<rect x="8.00879" y="11.0004" width="3" height="7" fill="#3340CF"/>
<rect x="8.00879" y="11.0004" width="3" height="7" fill="white" fill-opacity="0.7"/>
<circle cx="12.0088" cy="7.00037" r="1" fill="#3340CF"/>
<circle cx="12.0088" cy="7.00037" r="1" fill="white" fill-opacity="0.7"/>
</svg>
