<svg width="24" height="24" viewBox="0 0 24 24" fill="none" xmlns="http://www.w3.org/2000/svg">
<g clip-path="url(#clip0_127_2222)">
<path d="M14.8497 13.2709C14.8497 13.2009 14.8797 13.1309 14.9397 13.0709C15.1397 12.8909 15.2697 12.6209 15.2697 12.3209C15.2697 11.6809 14.6797 11.1809 14.0097 11.3309C13.6397 11.4209 13.3397 11.7209 13.2597 12.1009C13.1797 12.4709 13.3097 12.8209 13.5497 13.0509C13.6097 13.1109 13.6397 13.1909 13.6397 13.2609H10.4997V16.4009C10.5797 16.4009 10.6497 16.3709 10.7097 16.3109C10.9397 16.0709 11.2897 15.9409 11.6597 16.0209C12.0297 16.1009 12.3397 16.4009 12.4297 16.7709C12.5797 17.4409 12.0797 18.0309 11.4397 18.0309C11.1397 18.0309 10.8797 17.9009 10.6897 17.7009C10.6397 17.6409 10.5697 17.6109 10.4897 17.6109V20.7609H16.3297C17.2497 20.7609 17.9997 20.0109 17.9997 19.0909V13.2509H14.8497V13.2709Z" fill="#3340CF"/>
<path d="M13.5102 3.00098V6.14098C13.4302 6.14098 13.3602 6.11098 13.3002 6.05098C13.0702 5.81098 12.7302 5.68098 12.3502 5.76098C11.9602 5.84098 11.6402 6.17098 11.5602 6.56098C11.4402 7.21098 11.9302 7.77098 12.5602 7.77098C12.8602 7.77098 13.1202 7.64098 13.3102 7.44098C13.3602 7.38098 13.4302 7.35098 13.5102 7.35098V10.501H16.6502C16.6502 10.421 16.6202 10.351 16.5602 10.291C16.3202 10.061 16.1902 9.71098 16.2702 9.34098C16.3502 8.97098 16.6502 8.66098 17.0202 8.57098C17.6902 8.42098 18.2802 8.92098 18.2802 9.56098C18.2802 9.86098 18.1502 10.121 17.9502 10.311C17.8902 10.361 17.8602 10.431 17.8602 10.511H21.0102V4.67098C21.0102 3.75098 20.2602 3.00098 19.3402 3.00098H13.5002H13.5102Z" fill="#3340CF"/>
<path d="M13.5102 3.00098V6.14098C13.4302 6.14098 13.3602 6.11098 13.3002 6.05098C13.0702 5.81098 12.7302 5.68098 12.3502 5.76098C11.9602 5.84098 11.6402 6.17098 11.5602 6.56098C11.4402 7.21098 11.9302 7.77098 12.5602 7.77098C12.8602 7.77098 13.1202 7.64098 13.3102 7.44098C13.3602 7.38098 13.4302 7.35098 13.5102 7.35098V10.501H16.6502C16.6502 10.421 16.6202 10.351 16.5602 10.291C16.3202 10.061 16.1902 9.71098 16.2702 9.34098C16.3502 8.97098 16.6502 8.66098 17.0202 8.57098C17.6902 8.42098 18.2802 8.92098 18.2802 9.56098C18.2802 9.86098 18.1502 10.121 17.9502 10.311C17.8902 10.361 17.8602 10.431 17.8602 10.511H21.0102V4.67098C21.0102 3.75098 20.2602 3.00098 19.3402 3.00098H13.5002H13.5102Z" fill="white" fill-opacity="0.7"/>
<path d="M12.43 16.7809C12.34 16.4109 12.04 16.1109 11.66 16.0309C11.29 15.9509 10.94 16.0809 10.71 16.3209C10.65 16.3809 10.57 16.4109 10.5 16.4109V13.2709H7.35C7.35 13.3409 7.38 13.4109 7.44 13.4709C7.64 13.6509 7.77 13.9209 7.77 14.2209C7.77 14.8409 7.21 15.3409 6.56 15.2209C6.16 15.1509 5.84 14.8309 5.76 14.4409C5.68 14.0709 5.81 13.7209 6.05 13.4909C6.11 13.4309 6.14 13.3509 6.14 13.2809H3V19.1209C3 20.0409 3.75 20.7909 4.67 20.7909H10.51V17.6409C10.58 17.6409 10.65 17.6709 10.71 17.7309C10.9 17.9309 11.16 18.0609 11.46 18.0609C12.1 18.0609 12.6 17.4709 12.45 16.8009L12.43 16.7809Z" fill="#3340CF"/>
<path d="M12.43 16.7809C12.34 16.4109 12.04 16.1109 11.66 16.0309C11.29 15.9509 10.94 16.0809 10.71 16.3209C10.65 16.3809 10.57 16.4109 10.5 16.4109V13.2709H7.35C7.35 13.3409 7.38 13.4109 7.44 13.4709C7.64 13.6509 7.77 13.9209 7.77 14.2209C7.77 14.8409 7.21 15.3409 6.56 15.2209C6.16 15.1509 5.84 14.8309 5.76 14.4409C5.68 14.0709 5.81 13.7209 6.05 13.4909C6.11 13.4309 6.14 13.3509 6.14 13.2809H3V19.1209C3 20.0409 3.75 20.7909 4.67 20.7909H10.51V17.6409C10.58 17.6409 10.65 17.6709 10.71 17.7309C10.9 17.9309 11.16 18.0609 11.46 18.0609C12.1 18.0609 12.6 17.4709 12.45 16.8009L12.43 16.7809Z" fill="white" fill-opacity="0.7"/>
<path d="M9.56 10.5409C8.94 10.5409 8.44 9.98087 8.56 9.33087C8.63 8.93087 8.95 8.61087 9.35 8.53087C9.72 8.45087 10.07 8.58087 10.3 8.82087C10.36 8.88087 10.44 8.91087 10.51 8.91087V5.77087H4.67C3.75 5.77087 3 6.52087 3 7.44087V13.2809H6.14C6.14 13.3609 6.11 13.4309 6.05 13.4909C5.81 13.7209 5.68 14.0609 5.76 14.4409C5.84 14.8309 6.17 15.1509 6.56 15.2209C7.21 15.3409 7.77 14.8509 7.77 14.2209C7.77 13.9209 7.64 13.6609 7.44 13.4709C7.38 13.4209 7.35 13.3509 7.35 13.2709H10.5V10.1209C10.43 10.1209 10.36 10.1509 10.3 10.2109C10.12 10.4109 9.85 10.5409 9.55 10.5409H9.56Z" fill="#3340CF"/>
</g>
<defs>
<clipPath id="clip0_127_2222">
<rect width="18.01" height="17.78" fill="white" transform="translate(3 3.00049)"/>
</clipPath>
</defs>
</svg>
