<svg width="24" height="24" viewBox="0 0 24 24" fill="none" xmlns="http://www.w3.org/2000/svg">
<g clip-path="url(#clip0_127_2300)">
<path d="M2.96484 8.18522C2.96484 6.54445 4.28932 5.21997 5.93009 5.21997H7.90693C8.45056 5.21997 8.89535 5.66476 8.89535 6.20839V13.1273C8.89535 13.6709 8.45056 14.1157 7.90693 14.1157H5.93009C4.28932 14.1157 2.96484 12.7912 2.96484 11.1505V8.18522Z" fill="#3340CF"/>
<path d="M2.96484 8.18522C2.96484 6.54445 4.28932 5.21997 5.93009 5.21997H7.90693C8.45056 5.21997 8.89535 5.66476 8.89535 6.20839V13.1273C8.89535 13.6709 8.45056 14.1157 7.90693 14.1157H5.93009C4.28932 14.1157 2.96484 12.7912 2.96484 11.1505V8.18522Z" fill="white" fill-opacity="0.7"/>
<path d="M7.90682 14.1157H5.92998C5.62357 14.1157 5.32705 14.0564 5.05029 13.9675L5.82126 20.1648C5.88056 20.6591 6.30558 21.0346 6.79979 21.0346H7.77832C8.37137 21.0346 8.82605 20.5108 8.75686 19.9177L8.02543 14.096C8.02543 14.096 7.94635 14.1157 7.90682 14.1157Z" fill="#3340CF"/>
<path d="M18.7698 8.95621C18.728 7.41503 18.5489 6.08324 18.3419 5.00884C18.1527 4.02732 17.146 3.46522 16.1845 3.7384C13.7289 4.43603 11.2694 5.13766 8.81641 5.83282C8.86583 5.95143 8.89548 6.07004 8.89548 6.20842V13.1273C8.89548 13.2558 8.86583 13.3843 8.81641 13.5029L16.1774 15.5947C17.1417 15.8687 18.151 15.3031 18.3389 14.3184C18.6002 12.9492 18.8277 11.1144 18.7698 8.95621Z" fill="#3340CF"/>
<path d="M18.7799 7.19684C18.7799 7.19684 18.7008 7.20672 18.6613 7.21661C18.7107 7.76024 18.7502 8.3434 18.77 8.95622C18.7996 10.1127 18.7502 11.1802 18.6514 12.129C18.6909 12.129 18.7304 12.1488 18.77 12.1488C19.8572 12.1488 20.7468 11.0418 20.7468 9.67777C20.7468 8.31375 19.8572 7.20672 18.77 7.20672L18.7799 7.19684Z" fill="#3340CF"/>
<path d="M18.7799 7.19684C18.7799 7.19684 18.7008 7.20672 18.6613 7.21661C18.7107 7.76024 18.7502 8.3434 18.77 8.95622C18.7996 10.1127 18.7502 11.1802 18.6514 12.129C18.6909 12.129 18.7304 12.1488 18.77 12.1488C19.8572 12.1488 20.7468 11.0418 20.7468 9.67777C20.7468 8.31375 19.8572 7.20672 18.77 7.20672L18.7799 7.19684Z" fill="white" fill-opacity="0.7"/>
</g>
<defs>
<clipPath id="clip0_127_2300">
<rect width="17.7915" height="17.7915" fill="white" transform="translate(2.96484 3.24316)"/>
</clipPath>
</defs>
</svg>
