<svg width="24" height="24" viewBox="0 0 24 24" fill="none" xmlns="http://www.w3.org/2000/svg">
<path d="M20.153 7.23988C20.033 7.08988 19.953 6.83988 19.953 6.60988C19.953 6.37988 20.033 6.11988 20.153 5.97988L20.633 5.44988C20.853 5.20988 20.953 5.08988 20.973 4.93988C20.993 4.78988 20.913 4.64988 20.743 4.36988L20.513 3.97988C20.343 3.67988 20.253 3.52988 20.113 3.46988C19.963 3.40988 19.803 3.45988 19.473 3.54988L18.913 3.70988C18.703 3.75988 18.483 3.72988 18.283 3.62988L18.123 3.53988C17.953 3.42988 17.833 3.27988 17.763 3.08988L17.613 2.62988C17.513 2.32988 17.463 2.16988 17.343 2.08988C17.223 1.99988 17.063 1.99988 16.743 1.99988H16.233C15.913 1.99988 15.753 1.99988 15.633 2.08988C15.513 2.17988 15.463 2.32988 15.363 2.62988L15.213 3.08988C15.143 3.26988 15.013 3.42988 14.853 3.53988L14.693 3.62988C14.503 3.72988 14.283 3.75988 14.063 3.70988L13.503 3.54988C13.173 3.45988 13.003 3.40988 12.863 3.46988C12.713 3.52988 12.633 3.67988 12.463 3.97988L12.233 4.36988C12.073 4.64988 11.993 4.78988 12.003 4.93988C12.013 5.08988 12.123 5.20988 12.343 5.44988L12.823 5.97988C12.943 6.12988 13.023 6.37988 13.023 6.60988C13.023 6.83988 12.943 7.09988 12.823 7.23988L12.343 7.76988C12.123 8.00988 12.023 8.12988 12.003 8.27988C11.983 8.42988 12.063 8.56988 12.233 8.84988L12.463 9.23988C12.633 9.53988 12.723 9.68988 12.863 9.74988C13.013 9.80988 13.173 9.75988 13.503 9.66988L14.063 9.50988C14.273 9.45988 14.493 9.48988 14.693 9.58988L14.853 9.67988C15.023 9.78988 15.143 9.93988 15.213 10.1299L15.363 10.5899C15.463 10.8899 15.513 11.0499 15.633 11.1299C15.753 11.2199 15.913 11.2199 16.233 11.2199H16.743C17.063 11.2199 17.223 11.2199 17.343 11.1299C17.463 11.0399 17.513 10.8899 17.613 10.5899L17.763 10.1299C17.833 9.94988 17.963 9.78988 18.123 9.67988L18.283 9.58988C18.473 9.48988 18.693 9.45988 18.913 9.50988L19.473 9.66988C19.803 9.75988 19.973 9.80988 20.113 9.74988C20.263 9.68988 20.343 9.53988 20.513 9.23988L20.743 8.84988C20.903 8.56988 20.983 8.42988 20.973 8.27988C20.963 8.12988 20.853 8.00988 20.633 7.76988L20.153 7.23988ZM16.463 8.21988C15.573 8.21988 14.853 7.49988 14.853 6.60988C14.853 5.71988 15.573 4.99988 16.463 4.99988C17.353 4.99988 18.073 5.71988 18.073 6.60988C18.073 7.49988 17.353 8.21988 16.463 8.21988Z" fill="#3340CF"/>
<path d="M13.8997 16.3885C13.7393 16.177 13.6323 15.8245 13.6323 15.5002C13.6323 15.1759 13.7393 14.8094 13.8997 14.612L14.5414 13.8647C14.8355 13.5263 14.9692 13.3571 14.996 13.1456C15.0227 12.9341 14.9158 12.7367 14.6885 12.3419L14.381 11.792C14.1537 11.369 14.0334 11.1575 13.8462 11.0729C13.6457 10.9883 13.4318 11.0588 12.9906 11.1857L12.242 11.4113C11.9612 11.4818 11.6671 11.4395 11.3997 11.2985L11.1858 11.1716C10.9586 11.0165 10.7981 10.805 10.7045 10.5371L10.504 9.88853C10.3703 9.46554 10.3035 9.23994 10.143 9.12714C9.98262 9.00024 9.76872 9.00024 9.34091 9.00024H8.65909C8.23129 9.00024 8.01738 9.00024 7.85695 9.12714C7.69653 9.25404 7.62968 9.46554 7.49599 9.88853L7.29546 10.5371C7.20188 10.7909 7.02808 11.0165 6.81418 11.1716L6.60027 11.2985C6.34626 11.4395 6.05215 11.4818 5.75803 11.4113L5.00937 11.1857C4.56819 11.0588 4.34092 10.9883 4.15375 11.0729C3.95322 11.1575 3.84627 11.369 3.619 11.792L3.31151 12.3419C3.09761 12.7367 2.99066 12.9341 3.00402 13.1456C3.01739 13.3571 3.16445 13.5263 3.45857 13.8647L4.10028 14.612C4.26071 14.8235 4.36766 15.1759 4.36766 15.5002C4.36766 15.8245 4.26071 16.1911 4.10028 16.3885L3.45857 17.1358C3.16445 17.4742 3.03076 17.6434 3.00402 17.8549C2.97729 18.0664 3.08424 18.2638 3.31151 18.6586L3.619 19.2085C3.84627 19.6315 3.96659 19.843 4.15375 19.9276C4.35429 20.0122 4.56819 19.9417 5.00937 19.8148L5.75803 19.5892C6.03878 19.5187 6.33289 19.561 6.60027 19.702L6.81418 19.8289C7.04145 19.984 7.20188 20.1955 7.29546 20.4634L7.49599 21.112C7.62968 21.535 7.69653 21.7605 7.85695 21.8733C8.01738 22.0002 8.23129 22.0002 8.65909 22.0002H9.34091C9.76872 22.0002 9.98262 22.0002 10.143 21.8733C10.3035 21.7464 10.3703 21.535 10.504 21.112L10.7045 20.4634C10.7981 20.2096 10.9719 19.984 11.1858 19.8289L11.3997 19.702C11.6537 19.561 11.9479 19.5187 12.242 19.5892L12.9906 19.8148C13.4318 19.9417 13.6591 20.0122 13.8462 19.9276C14.0468 19.843 14.1537 19.6315 14.381 19.2085L14.6885 18.6586C14.9024 18.2638 15.0093 18.0664 14.996 17.8549C14.9826 17.6434 14.8355 17.4742 14.5414 17.1358L13.8997 16.3885ZM8.96658 17.7703C7.77674 17.7703 6.81418 16.7551 6.81418 15.5002C6.81418 14.2454 7.77674 13.2302 8.96658 13.2302C10.1564 13.2302 11.119 14.2454 11.119 15.5002C11.119 16.7551 10.1564 17.7703 8.96658 17.7703Z" fill="#3340CF"/>
<path d="M13.8997 16.3885C13.7393 16.177 13.6323 15.8245 13.6323 15.5002C13.6323 15.1759 13.7393 14.8094 13.8997 14.612L14.5414 13.8647C14.8355 13.5263 14.9692 13.3571 14.996 13.1456C15.0227 12.9341 14.9158 12.7367 14.6885 12.3419L14.381 11.792C14.1537 11.369 14.0334 11.1575 13.8462 11.0729C13.6457 10.9883 13.4318 11.0588 12.9906 11.1857L12.242 11.4113C11.9612 11.4818 11.6671 11.4395 11.3997 11.2985L11.1858 11.1716C10.9586 11.0165 10.7981 10.805 10.7045 10.5371L10.504 9.88853C10.3703 9.46554 10.3035 9.23994 10.143 9.12714C9.98262 9.00024 9.76872 9.00024 9.34091 9.00024H8.65909C8.23129 9.00024 8.01738 9.00024 7.85695 9.12714C7.69653 9.25404 7.62968 9.46554 7.49599 9.88853L7.29546 10.5371C7.20188 10.7909 7.02808 11.0165 6.81418 11.1716L6.60027 11.2985C6.34626 11.4395 6.05215 11.4818 5.75803 11.4113L5.00937 11.1857C4.56819 11.0588 4.34092 10.9883 4.15375 11.0729C3.95322 11.1575 3.84627 11.369 3.619 11.792L3.31151 12.3419C3.09761 12.7367 2.99066 12.9341 3.00402 13.1456C3.01739 13.3571 3.16445 13.5263 3.45857 13.8647L4.10028 14.612C4.26071 14.8235 4.36766 15.1759 4.36766 15.5002C4.36766 15.8245 4.26071 16.1911 4.10028 16.3885L3.45857 17.1358C3.16445 17.4742 3.03076 17.6434 3.00402 17.8549C2.97729 18.0664 3.08424 18.2638 3.31151 18.6586L3.619 19.2085C3.84627 19.6315 3.96659 19.843 4.15375 19.9276C4.35429 20.0122 4.56819 19.9417 5.00937 19.8148L5.75803 19.5892C6.03878 19.5187 6.33289 19.561 6.60027 19.702L6.81418 19.8289C7.04145 19.984 7.20188 20.1955 7.29546 20.4634L7.49599 21.112C7.62968 21.535 7.69653 21.7605 7.85695 21.8733C8.01738 22.0002 8.23129 22.0002 8.65909 22.0002H9.34091C9.76872 22.0002 9.98262 22.0002 10.143 21.8733C10.3035 21.7464 10.3703 21.535 10.504 21.112L10.7045 20.4634C10.7981 20.2096 10.9719 19.984 11.1858 19.8289L11.3997 19.702C11.6537 19.561 11.9479 19.5187 12.242 19.5892L12.9906 19.8148C13.4318 19.9417 13.6591 20.0122 13.8462 19.9276C14.0468 19.843 14.1537 19.6315 14.381 19.2085L14.6885 18.6586C14.9024 18.2638 15.0093 18.0664 14.996 17.8549C14.9826 17.6434 14.8355 17.4742 14.5414 17.1358L13.8997 16.3885ZM8.96658 17.7703C7.77674 17.7703 6.81418 16.7551 6.81418 15.5002C6.81418 14.2454 7.77674 13.2302 8.96658 13.2302C10.1564 13.2302 11.119 14.2454 11.119 15.5002C11.119 16.7551 10.1564 17.7703 8.96658 17.7703Z" fill="white" fill-opacity="0.7"/>
</svg>
