<svg width="24" height="24" viewBox="0 0 24 24" fill="none" xmlns="http://www.w3.org/2000/svg">
<path d="M15.1794 7.69657C15.1794 5.39957 13.3178 3.53802 11.0208 3.53802C8.72385 3.53802 6.8623 5.39957 6.8623 7.69657C6.8623 9.99356 8.72385 11.8551 11.0208 11.8551C13.3178 11.8551 15.1794 9.99356 15.1794 7.69657Z" fill="#3340CF"/>
<path d="M11.0208 12.7915C6.60102 12.7915 2.95413 16.286 2.37716 20.8147C2.30096 21.4678 2.81261 22.0448 3.46579 22.0448H18.5541C19.2073 22.0448 19.7298 21.4678 19.6427 20.8147C19.0766 16.286 15.4298 12.7915 11.0099 12.7915H11.0208Z" fill="#3340CF"/>
<path d="M19.9151 17.8211C19.7845 17.6578 19.6974 17.3966 19.6974 17.1571C19.6974 16.9176 19.7845 16.6345 19.9151 16.493L20.4376 15.9269C20.6771 15.6765 20.786 15.5459 20.8078 15.3826C20.8295 15.2193 20.7425 15.0778 20.5574 14.773L20.307 14.3593C20.1219 14.0436 20.024 13.8803 19.8716 13.815C19.7083 13.7497 19.5341 13.815 19.1748 13.9021L18.5652 14.0763C18.3366 14.1307 18.0971 14.098 17.8794 13.9892L17.7052 13.8912C17.5201 13.7714 17.3895 13.619 17.3133 13.4122L17.15 12.9223C17.0411 12.6066 16.9867 12.4324 16.8561 12.3454C16.7254 12.2474 16.5513 12.2474 16.2029 12.2474H15.6477C15.2993 12.2474 15.1252 12.2474 14.9945 12.3454C14.8639 12.4433 14.8095 12.5957 14.7006 12.9223L14.5373 13.4122C14.4611 13.6082 14.3196 13.7714 14.1454 13.8912L13.9712 13.9892C13.7644 14.098 13.5249 14.1307 13.2854 14.0763L12.6758 13.9021C12.3165 13.8041 12.1315 13.7497 11.979 13.815C11.8157 13.8803 11.7287 14.0327 11.5436 14.3593L11.2932 14.773C11.119 15.0669 11.0319 15.2193 11.0428 15.3826C11.0537 15.5459 11.1735 15.6657 11.413 15.9269L11.9355 16.493C12.0661 16.6563 12.1532 16.9176 12.1532 17.1571C12.1532 17.3966 12.0661 17.6796 11.9355 17.8211L11.413 18.3872C11.1735 18.6376 11.0646 18.7682 11.0428 18.9315C11.0211 19.0948 11.1081 19.2363 11.2932 19.5412L11.5436 19.9548C11.7287 20.2705 11.8266 20.4338 11.979 20.4991C12.1423 20.5645 12.3165 20.4991 12.6758 20.4121L13.2854 20.2379C13.514 20.1834 13.7535 20.2161 13.9712 20.325L14.1454 20.4229C14.3305 20.5427 14.4611 20.6951 14.5373 20.9019L14.7006 21.3918C14.8095 21.7075 14.8639 21.8817 14.9945 21.9688C15.1252 22.0668 15.2993 22.0668 15.6477 22.0668H16.2029C16.5513 22.0668 16.7254 22.0668 16.8561 21.9688C16.9867 21.8708 17.0411 21.7184 17.15 21.3918L17.3133 20.9019C17.3895 20.706 17.531 20.5427 17.7052 20.4229L17.8794 20.325C18.0862 20.2161 18.3257 20.1834 18.5652 20.2379L19.1748 20.4121C19.5341 20.51 19.7192 20.5645 19.8716 20.4991C20.0349 20.4338 20.1219 20.2814 20.307 19.9548L20.5574 19.5412C20.7316 19.2472 20.8187 19.0948 20.8078 18.9315C20.7969 18.7682 20.6771 18.6485 20.4376 18.3872L19.9151 17.8211ZM15.8872 18.8662C14.9183 18.8662 14.1345 18.1042 14.1345 17.1571C14.1345 16.21 14.9183 15.4479 15.8872 15.4479C16.8561 15.4479 17.6399 16.21 17.6399 17.1571C17.6399 18.1042 16.8561 18.8662 15.8872 18.8662Z" fill="#3340CF"/>
<path d="M19.9151 17.8211C19.7845 17.6578 19.6974 17.3966 19.6974 17.1571C19.6974 16.9176 19.7845 16.6345 19.9151 16.493L20.4376 15.9269C20.6771 15.6765 20.786 15.5459 20.8078 15.3826C20.8295 15.2193 20.7425 15.0778 20.5574 14.773L20.307 14.3593C20.1219 14.0436 20.024 13.8803 19.8716 13.815C19.7083 13.7497 19.5341 13.815 19.1748 13.9021L18.5652 14.0763C18.3366 14.1307 18.0971 14.098 17.8794 13.9892L17.7052 13.8912C17.5201 13.7714 17.3895 13.619 17.3133 13.4122L17.15 12.9223C17.0411 12.6066 16.9867 12.4324 16.8561 12.3454C16.7254 12.2474 16.5513 12.2474 16.2029 12.2474H15.6477C15.2993 12.2474 15.1252 12.2474 14.9945 12.3454C14.8639 12.4433 14.8095 12.5957 14.7006 12.9223L14.5373 13.4122C14.4611 13.6082 14.3196 13.7714 14.1454 13.8912L13.9712 13.9892C13.7644 14.098 13.5249 14.1307 13.2854 14.0763L12.6758 13.9021C12.3165 13.8041 12.1315 13.7497 11.979 13.815C11.8157 13.8803 11.7287 14.0327 11.5436 14.3593L11.2932 14.773C11.119 15.0669 11.0319 15.2193 11.0428 15.3826C11.0537 15.5459 11.1735 15.6657 11.413 15.9269L11.9355 16.493C12.0661 16.6563 12.1532 16.9176 12.1532 17.1571C12.1532 17.3966 12.0661 17.6796 11.9355 17.8211L11.413 18.3872C11.1735 18.6376 11.0646 18.7682 11.0428 18.9315C11.0211 19.0948 11.1081 19.2363 11.2932 19.5412L11.5436 19.9548C11.7287 20.2705 11.8266 20.4338 11.979 20.4991C12.1423 20.5645 12.3165 20.4991 12.6758 20.4121L13.2854 20.2379C13.514 20.1834 13.7535 20.2161 13.9712 20.325L14.1454 20.4229C14.3305 20.5427 14.4611 20.6951 14.5373 20.9019L14.7006 21.3918C14.8095 21.7075 14.8639 21.8817 14.9945 21.9688C15.1252 22.0668 15.2993 22.0668 15.6477 22.0668H16.2029C16.5513 22.0668 16.7254 22.0668 16.8561 21.9688C16.9867 21.8708 17.0411 21.7184 17.15 21.3918L17.3133 20.9019C17.3895 20.706 17.531 20.5427 17.7052 20.4229L17.8794 20.325C18.0862 20.2161 18.3257 20.1834 18.5652 20.2379L19.1748 20.4121C19.5341 20.51 19.7192 20.5645 19.8716 20.4991C20.0349 20.4338 20.1219 20.2814 20.307 19.9548L20.5574 19.5412C20.7316 19.2472 20.8187 19.0948 20.8078 18.9315C20.7969 18.7682 20.6771 18.6485 20.4376 18.3872L19.9151 17.8211ZM15.8872 18.8662C14.9183 18.8662 14.1345 18.1042 14.1345 17.1571C14.1345 16.21 14.9183 15.4479 15.8872 15.4479C16.8561 15.4479 17.6399 16.21 17.6399 17.1571C17.6399 18.1042 16.8561 18.8662 15.8872 18.8662Z" fill="white" fill-opacity="0.7"/>
</svg>
