<svg width="24" height="24" viewBox="0 0 24 24" fill="none" xmlns="http://www.w3.org/2000/svg">
<g clip-path="url(#clip0_127_2245)">
<path d="M20.3501 5.00037C20.6301 5.00037 20.8501 4.78037 20.8501 4.50037C20.8501 4.22037 20.6301 4.00037 20.3501 4.00037H18.4101L15.5201 17.0104H7.88014C7.61014 17.0104 7.39014 17.2304 7.39014 17.5004C7.39014 17.7704 7.61014 17.9904 7.88014 17.9904H16.3101L19.2101 5.00037H20.3501Z" fill="#3340CF"/>
<path d="M20.3501 5.00037C20.6301 5.00037 20.8501 4.78037 20.8501 4.50037C20.8501 4.22037 20.6301 4.00037 20.3501 4.00037H18.4101L15.5201 17.0104H7.88014C7.61014 17.0104 7.39014 17.2304 7.39014 17.5004C7.39014 17.7704 7.61014 17.9904 7.88014 17.9904H16.3101L19.2101 5.00037H20.3501Z" fill="white" fill-opacity="0.7"/>
<path d="M15.7798 15.8996L17.7498 6.93964H5.00983C4.33983 6.93964 3.84983 7.59964 4.03983 8.24964L5.49983 13.2196C5.59983 13.5796 5.89983 13.8496 6.25983 13.9296L15.7698 15.8996H15.7798Z" fill="#3340CF"/>
<path d="M17.2998 13.5596L18.7798 6.93964H18.7698L17.2998 13.5596Z" fill="#3340CF"/>
<path d="M14.8301 19.97C15.3901 19.97 15.8501 19.53 15.8501 18.99C15.8501 18.45 15.3901 18.01 14.8301 18.01C14.2701 18.01 13.8101 18.45 13.8101 18.99C13.8101 19.53 14.2701 19.97 14.8301 19.97Z" fill="#3340CF"/>
<path d="M14.8301 19.97C15.3901 19.97 15.8501 19.53 15.8501 18.99C15.8501 18.45 15.3901 18.01 14.8301 18.01C14.2701 18.01 13.8101 18.45 13.8101 18.99C13.8101 19.53 14.2701 19.97 14.8301 19.97Z" fill="white" fill-opacity="0.7"/>
<path d="M8.80955 19.97C9.36955 19.97 9.82955 19.53 9.82955 18.99C9.82955 18.45 9.36955 18.01 8.80955 18.01C8.24955 18.01 7.78955 18.45 7.78955 18.99C7.78955 19.53 8.24955 19.97 8.80955 19.97Z" fill="#3340CF"/>
<path d="M8.80955 19.97C9.36955 19.97 9.82955 19.53 9.82955 18.99C9.82955 18.45 9.36955 18.01 8.80955 18.01C8.24955 18.01 7.78955 18.45 7.78955 18.99C7.78955 19.53 8.24955 19.97 8.80955 19.97Z" fill="white" fill-opacity="0.7"/>
</g>
<defs>
<clipPath id="clip0_127_2245">
<rect width="16.85" height="15.97" fill="white" transform="translate(4 4.00018)"/>
</clipPath>
</defs>
</svg>
