<svg width="24" height="24" viewBox="0 0 24 24" fill="none" xmlns="http://www.w3.org/2000/svg">
<path d="M7.2357 13.3075C7.39805 12.9598 7.79604 12.7968 8.15076 12.9204L8.22122 12.9493L15.6344 16.4088L15.701 16.4445C16.0237 16.637 16.1548 17.0465 15.9925 17.3943C15.8301 17.742 15.4321 17.905 15.0774 17.7814L15.0069 17.7524L7.59381 14.293L7.52721 14.2573C7.20443 14.0648 7.07337 13.6553 7.2357 13.3075ZM15.0407 6.51016C15.3884 6.36786 15.7945 6.50938 15.9751 6.84799C16.1553 7.18651 16.0464 7.60196 15.7347 7.81131L15.6691 7.85089L8.25597 11.8046C7.8948 11.9969 7.44566 11.8597 7.25308 11.4986C7.06077 11.1374 7.19796 10.6883 7.55906 10.4957L14.9722 6.54201L15.0407 6.51016Z" fill="#3340CF"/>
<path d="M20.7567 6.20818C20.7567 7.84585 19.4292 9.17345 17.7914 9.17345C16.1537 9.17345 14.8262 7.84585 14.8262 6.20818C14.8262 4.57052 16.1537 3.24292 17.7914 3.24292C19.4292 3.24292 20.7567 4.57052 20.7567 6.20818Z" fill="#3340CF"/>
<path d="M20.7567 6.20818C20.7567 7.84585 19.4292 9.17345 17.7914 9.17345C16.1537 9.17345 14.8262 7.84585 14.8262 6.20818C14.8262 4.57052 16.1537 3.24292 17.7914 3.24292C19.4292 3.24292 20.7567 4.57052 20.7567 6.20818Z" fill="white" fill-opacity="0.7"/>
<path d="M8.89537 12.6329C8.89537 14.2706 7.56778 15.5981 5.93011 15.5981C4.29244 15.5981 2.96484 14.2706 2.96484 12.6329C2.96484 10.9952 4.29244 9.6676 5.93011 9.6676C7.56778 9.6676 8.89537 10.9952 8.89537 12.6329Z" fill="#3340CF"/>
<path d="M8.89537 12.6329C8.89537 14.2706 7.56778 15.5981 5.93011 15.5981C4.29244 15.5981 2.96484 14.2706 2.96484 12.6329C2.96484 10.9952 4.29244 9.6676 5.93011 9.6676C7.56778 9.6676 8.89537 10.9952 8.89537 12.6329Z" fill="white" fill-opacity="0.7"/>
<path d="M20.7567 18.0691C20.7567 19.7069 19.4292 21.0344 17.7914 21.0344C16.1537 21.0344 14.8262 19.7069 14.8262 18.0691C14.8262 16.4314 16.1537 15.1039 17.7914 15.1039C19.4292 15.1039 20.7567 16.4314 20.7567 18.0691Z" fill="#3340CF"/>
<path d="M20.7567 18.0691C20.7567 19.7069 19.4292 21.0344 17.7914 21.0344C16.1537 21.0344 14.8262 19.7069 14.8262 18.0691C14.8262 16.4314 16.1537 15.1039 17.7914 15.1039C19.4292 15.1039 20.7567 16.4314 20.7567 18.0691Z" fill="white" fill-opacity="0.7"/>
</svg>
