<svg width="24" height="24" viewBox="0 0 24 24" fill="none" xmlns="http://www.w3.org/2000/svg">
<path d="M19 11H5C3.89543 11 3 11.8954 3 13V16C3 17.1046 3.89543 18 5 18H19C20.1046 18 21 17.1046 21 16V13C21 11.8954 20.1046 11 19 11Z" fill="#3340CF"/>
<path d="M16 9H8C6.89543 9 6 9.97683 6 11.1818V18.8182C6 20.0232 6.89543 21 8 21H16C17.1046 21 18 20.0232 18 18.8182V11.1818C18 9.97683 17.1046 9 16 9Z" fill="#3340CF"/>
<path d="M16 9H8C6.89543 9 6 9.97683 6 11.1818V18.8182C6 20.0232 6.89543 21 8 21H16C17.1046 21 18 20.0232 18 18.8182V11.1818C18 9.97683 17.1046 9 16 9Z" fill="white" fill-opacity="0.7"/>
<path d="M12 3C13.1046 3 14 3.89543 14 5C14 5.93162 13.3622 6.71129 12.5 6.93359V9H11.5V6.93359C10.6378 6.71129 10 5.93162 10 5C10 3.89543 10.8954 3 12 3Z" fill="#3340CF"/>
<path d="M13.5214 16.337C13.6109 16.0741 13.8958 15.9322 14.1597 16.0199C14.4247 16.1082 14.5682 16.395 14.4798 16.6601V16.6621L14.4788 16.664C14.4782 16.6659 14.4768 16.6684 14.4759 16.6709C14.4741 16.6761 14.4718 16.6828 14.4689 16.6907C14.4631 16.7066 14.4547 16.728 14.4442 16.7539C14.4233 16.8058 14.3931 16.8769 14.3514 16.9604C14.2683 17.1265 14.1384 17.3494 13.9512 17.574C13.5737 18.0269 12.9426 18.5057 11.9999 18.5057C11.0573 18.5056 10.426 18.0269 10.0486 17.574C9.8615 17.3494 9.73247 17.1265 9.64945 16.9604C9.60767 16.8769 9.57658 16.8058 9.55559 16.7539C9.54514 16.7281 9.53671 16.7066 9.53089 16.6907C9.52803 16.6829 9.52576 16.6761 9.52397 16.6709C9.52311 16.6685 9.52261 16.6658 9.522 16.664L9.52101 16.6621V16.6611L9.52002 16.6601L9.49829 16.5603C9.46997 16.3266 9.60812 16.0972 9.84014 16.0199C10.1042 15.9318 10.3899 16.0739 10.4794 16.337L10.4814 16.3429C10.4836 16.349 10.4873 16.3598 10.4932 16.3745C10.5054 16.4047 10.526 16.451 10.5545 16.5079C10.612 16.623 10.701 16.7756 10.8262 16.9259C11.0736 17.2228 11.4429 17.4939 11.9999 17.494C12.5571 17.494 12.9261 17.2229 13.1737 16.9259C13.299 16.7755 13.3888 16.6231 13.4464 16.5079C13.4748 16.451 13.4944 16.4047 13.5066 16.3745C13.5127 16.3596 13.5173 16.349 13.5195 16.3429C13.5206 16.3399 13.5213 16.3375 13.5214 16.337Z" fill="#3340CF"/>
<path d="M8.49414 13.9995V12.9996C8.49414 12.7203 8.72062 12.4938 9 12.4938C9.27938 12.4938 9.50586 12.7203 9.50586 12.9996V13.9995C9.50586 14.2789 9.27938 14.5054 9 14.5054C8.72062 14.5054 8.49414 14.2789 8.49414 13.9995Z" fill="#3340CF"/>
<path d="M14.4941 13.9995V12.9996C14.4941 12.7203 14.7206 12.4938 15 12.4938C15.2794 12.4938 15.5059 12.7203 15.5059 12.9996V13.9995C15.5059 14.2789 15.2794 14.5054 15 14.5054C14.7206 14.5054 14.4941 14.2789 14.4941 13.9995Z" fill="#3340CF"/>
</svg>
