<svg width="100" height="21" viewBox="0 0 100 21" fill="none" xmlns="http://www.w3.org/2000/svg">
<path d="M37.2368 5.63989C34.4167 5.63989 32.1221 7.8764 32.1221 10.6259C32.1221 13.3753 34.4167 15.6587 37.2368 15.6587C40.0568 15.6587 42.3358 13.4009 42.3358 10.6259C42.3358 7.85081 40.048 5.63989 37.2368 5.63989ZM39.9887 10.6252C39.9887 12.2683 38.7798 13.5552 37.2368 13.5552C35.6937 13.5552 34.4692 12.2683 34.4692 10.6252C34.4692 8.9822 35.6849 7.74271 37.2368 7.74271C38.7886 7.74271 39.9887 9.00905 39.9887 10.6252Z" fill="currentColor" style="fill:currentColor;fill:color(display-p3 0.7333 0.7412 0.7490);fill-opacity:1;"/>
<path d="M65.5408 5.63989C62.7206 5.63989 60.4263 7.8764 60.4263 10.6259C60.4263 13.3753 62.7206 15.6587 65.5408 15.6587C68.3609 15.6587 70.6396 13.4009 70.6396 10.6259C70.6396 7.85081 68.3521 5.63989 65.5408 5.63989ZM68.2931 10.6252C68.2931 12.2683 67.0846 13.5552 65.5412 13.5552C63.9984 13.5552 62.7738 12.2683 62.7738 10.6252C62.7738 8.9822 63.9896 7.74271 65.5412 7.74271C67.0929 7.74271 68.2931 9.00905 68.2931 10.6252Z" fill="currentColor" style="fill:currentColor;fill:color(display-p3 0.7333 0.7412 0.7490);fill-opacity:1;"/>
<path d="M94.7331 5.63989C91.913 5.63989 89.6187 7.8764 89.6187 10.6259C89.6187 13.3753 91.913 15.6587 94.7331 15.6587C97.5533 15.6587 99.832 13.4009 99.832 10.6259C99.832 7.85081 97.5445 5.63989 94.7331 5.63989ZM97.4854 10.6252C97.4854 12.2683 96.277 13.5552 94.7336 13.5552C93.1907 13.5552 91.9662 12.2683 91.9662 10.6252C91.9662 8.9822 93.1819 7.74271 94.7336 7.74271C96.2858 7.74271 97.4854 9.00905 97.4854 10.6252Z" fill="currentColor" style="fill:currentColor;fill:color(display-p3 0.7333 0.7412 0.7490);fill-opacity:1;"/>
<path d="M31.387 12.933C31.3321 12.8992 31.2652 12.8961 31.2071 12.9242C31.0709 12.9911 30.8916 13.0798 30.806 13.1179C30.1232 13.4246 29.5385 13.5552 28.8525 13.5552C27.1176 13.5552 25.9063 12.357 25.9063 10.6409C25.9063 8.92469 27.1382 7.74335 28.8363 7.74335C29.6128 7.74335 30.3562 7.9514 31.0459 8.36119C31.1009 8.39371 31.1671 8.39556 31.2246 8.36622C31.2821 8.33683 31.3196 8.28063 31.3246 8.21627L31.4658 6.4358C31.4726 6.34772 31.427 6.26525 31.3496 6.22463C30.5699 5.82045 29.7459 5.63989 28.6757 5.63989C25.8076 5.63989 23.561 7.83641 23.561 10.6414C23.561 13.4465 25.7107 15.6587 28.5626 15.6587C29.3392 15.6587 30.0601 15.5574 30.7042 15.3581C30.9347 15.2875 31.2065 15.1708 31.3476 15.107C31.4258 15.072 31.4757 14.9946 31.4757 14.9084V13.0904C31.4757 13.026 31.4432 12.9667 31.3883 12.933H31.387Z" fill="currentColor" style="fill:currentColor;fill:color(display-p3 0.7333 0.7412 0.7490);fill-opacity:1;"/>
<path d="M84.9513 12.933C84.8966 12.8992 84.8297 12.8961 84.7716 12.9242C84.6354 12.9917 84.4557 13.0798 84.3702 13.1179C83.6877 13.4246 83.1027 13.5552 82.4167 13.5552C80.6819 13.5552 79.4706 12.357 79.4706 10.6409C79.4706 8.92469 80.7025 7.74335 82.4006 7.74335C83.1769 7.74335 83.9206 7.9514 84.61 8.36119C84.6651 8.39371 84.732 8.39556 84.7887 8.36622C84.8463 8.33683 84.8839 8.28063 84.8888 8.21627L85.0299 6.4358C85.0367 6.34772 84.9913 6.26525 84.9137 6.22463C84.1344 5.82045 83.3102 5.63989 82.24 5.63989C79.372 5.63989 77.1255 7.83641 77.1255 10.6414C77.1255 13.4465 79.2748 15.6587 82.1267 15.6587C82.9035 15.6587 83.6242 15.5574 84.2687 15.3581C84.4991 15.2875 84.7706 15.1708 84.9122 15.107C84.9898 15.072 85.0401 14.9946 85.0401 14.9084V13.0904C85.0401 13.026 85.0074 12.9667 84.9527 12.933H84.9513Z" fill="currentColor" style="fill:currentColor;fill:color(display-p3 0.7333 0.7412 0.7490);fill-opacity:1;"/>
<path d="M48.4553 5.63989C47.3183 5.63989 46.3219 6.05471 45.6378 6.81V6.03597C45.6378 5.95164 45.5697 5.88353 45.4853 5.88353H43.5743C43.49 5.88353 43.4219 5.95164 43.4219 6.03597V15.2644C43.4219 15.3488 43.49 15.4169 43.5743 15.4169H45.5672C45.6515 15.4169 45.7196 15.3488 45.7196 15.2644V10.221C45.7196 8.66981 46.5186 7.74462 47.8568 7.74462C49.0845 7.74462 49.8164 8.65234 49.8164 10.1735V15.2657C49.8164 15.35 49.8847 15.4182 49.9692 15.4182H51.9608C52.0448 15.4182 52.1131 15.35 52.1131 15.2657V9.94739C52.1131 7.25168 50.746 5.64175 48.4559 5.64175V5.64053L48.4553 5.63989Z" fill="currentColor" style="fill:currentColor;fill:color(display-p3 0.7333 0.7412 0.7490);fill-opacity:1;"/>
<path d="M59.0197 10.891C58.4851 10.335 57.762 9.94639 57.1238 9.6028C56.3548 9.18983 55.6913 8.83253 55.6913 8.37459C55.6913 7.91666 56.1917 7.6299 57.1004 7.6299C57.8069 7.6299 58.51 7.75485 59.0812 7.98286C59.1267 8.00161 59.1774 7.99663 59.2184 7.97036C59.2599 7.94478 59.2853 7.9023 59.2897 7.85357L59.4181 6.23364C59.423 6.17055 59.3879 6.10996 59.3303 6.08369C58.6858 5.78132 57.926 5.64075 56.9383 5.64075C54.8412 5.64075 53.3774 6.79904 53.3774 8.45706C53.3774 10.1151 54.8036 10.8572 55.9496 11.4488C56.7586 11.8668 57.4568 12.2273 57.4568 12.7789C57.4568 13.1931 57.2674 13.6691 55.7889 13.6691C55.1425 13.6691 53.8799 13.3143 53.5078 13.205C53.4619 13.1912 53.4131 13.2 53.3745 13.2287C53.3354 13.2574 53.313 13.3024 53.313 13.3511V15.0611C53.313 15.1291 53.3594 15.1904 53.4248 15.2078C53.6992 15.2828 55.1098 15.6583 55.9349 15.6583C57.0613 15.6583 58.0183 15.3909 58.7028 14.8855C59.4118 14.362 59.7863 13.6161 59.7863 12.7295C59.7863 12.0299 59.5358 11.4282 59.0197 10.891Z" fill="currentColor" style="fill:currentColor;fill:color(display-p3 0.7333 0.7412 0.7490);fill-opacity:1;"/>
<path d="M86.5371 5.8822H88.5287C88.6132 5.8822 88.681 5.95031 88.681 6.03464V15.2631C88.681 15.3474 88.6132 15.4156 88.5287 15.4156H86.5371C86.4526 15.4156 86.3848 15.3474 86.3848 15.2631V6.03464C86.3848 5.95031 86.4526 5.8822 86.5371 5.8822Z" fill="currentColor" style="fill:currentColor;fill:color(display-p3 0.7333 0.7412 0.7490);fill-opacity:1;"/>
<path d="M76.8743 5.70486C75.6824 5.72048 74.6966 6.11529 74.017 6.84938V6.03472C74.017 5.9504 73.9486 5.88229 73.8646 5.88229H71.9536C71.8691 5.88229 71.8008 5.9504 71.8008 6.03472V15.2632C71.8008 15.3475 71.8691 15.4156 71.9536 15.4156H73.9452C74.0292 15.4156 74.0975 15.3475 74.0975 15.2632V10.171C74.0975 8.51238 75.1932 7.92076 76.2185 7.92076C76.367 7.92076 76.532 7.93204 76.7097 7.95264C76.7507 7.95762 76.7913 7.94576 76.824 7.91954C76.8557 7.89327 76.8762 7.85455 76.8796 7.8133L77.0285 5.86916C77.032 5.82668 77.0168 5.7842 76.9875 5.75295C76.9587 5.72175 76.9182 5.70422 76.8743 5.70422V5.70486Z" fill="currentColor" style="fill:currentColor;fill:color(display-p3 0.7333 0.7412 0.7490);fill-opacity:1;"/>
<path d="M17.2615 0.906145C12.5779 1.1698 8.42413 3.32199 5.90336 5.85399C5.80962 5.94773 5.76529 6.08015 5.78091 6.21134L5.854 6.84046C5.86523 6.93606 5.97079 6.98664 6.05326 6.93665C8.24543 5.59536 10.8774 4.70703 13.8305 4.49708C13.9904 4.48585 14.1223 4.6208 14.1091 4.7807L12.989 18.7003C12.979 18.8259 13.059 18.9395 13.1802 18.9739C13.9973 19.2063 14.8507 19.5374 15.6934 19.9073C15.8584 19.9791 16.0458 19.8666 16.0595 19.6867L17.5364 1.18919C17.5489 1.03109 17.4202 0.896771 17.2622 0.90556L17.2615 0.906145Z" fill="currentColor" style="fill:currentColor;fill:color(display-p3 0.7333 0.7412 0.7490);fill-opacity:1;"/>
<path d="M3.50532 10.5681L3.59028 11.2996C3.60153 11.3971 3.71085 11.447 3.79332 11.394C5.90553 10.0027 8.59748 8.95001 11.7917 8.64143C11.8761 8.63328 11.9429 8.56643 11.9498 8.48148L12.1084 6.51048C12.1228 6.33681 11.9666 6.19873 11.7961 6.2312C8.68556 6.81408 5.74372 8.33842 3.64838 10.1901C3.54218 10.2845 3.48908 10.4256 3.50532 10.5675V10.5681Z" fill="currentColor" style="fill:currentColor;fill:color(display-p3 0.7333 0.7412 0.7490);fill-opacity:1;"/>
<path d="M11.7775 10.6213L11.5794 13.0808C11.5719 13.1733 11.4939 13.2433 11.4007 13.2408C8.17029 13.1677 4.71554 14.0954 2.08855 15.6391C2.00671 15.6872 1.90238 15.636 1.89176 15.5416L1.79118 14.6783C1.77368 14.5321 1.83116 14.3853 1.94486 14.2915C4.45002 12.2294 8.20837 10.5544 11.4963 10.337C11.6569 10.3264 11.7906 10.4601 11.7775 10.6206V10.6213Z" fill="currentColor" style="fill:currentColor;fill:color(display-p3 0.7333 0.7412 0.7490);fill-opacity:1;"/>
<path d="M11.3907 15.3961L11.1551 18.3261C11.147 18.4261 11.0577 18.4973 10.959 18.4848C7.45611 18.05 3.61592 18.5879 0.434186 20.0822C0.35297 20.1203 0.258009 20.0685 0.247389 19.9785L0.132441 18.989C0.113698 18.8309 0.182417 18.6747 0.311737 18.5822C3.21297 16.5169 6.71709 15.0794 11.132 15.1119C11.2838 15.1131 11.4025 15.2443 11.3907 15.3955V15.3961Z" fill="currentColor" style="fill:currentColor;fill:color(display-p3 0.7333 0.7412 0.7490);fill-opacity:1;"/>
</svg>
