<svg width="158" height="24" viewBox="0 0 158 24" fill="none" xmlns="http://www.w3.org/2000/svg">
<path d="M130.995 0L107.827 24H118.804L141.972 0H130.995Z" fill="#BBBDBF" fill-opacity="0.5" style="fill:#BBBDBF;fill:color(display-p3 0.7333 0.7412 0.7490);fill-opacity:0.5;"/>
<path d="M142.263 0H150.229V8.10063H158V16.1006H150.229V24H142.263V16.1006H134.395V8.10063H142.263V0Z" fill="#BBBDBF" style="fill:#BBBDBF;fill:color(display-p3 0.7333 0.7412 0.7490);fill-opacity:1;"/>
<path fill-rule="evenodd" clip-rule="evenodd" d="M11.5841 24C5.18637 24 0 18.6274 0 12C0 5.37258 5.18637 0 11.5841 0H130.995L107.827 24H11.5841ZM63.3747 19.2287L68.1463 4.88803H64.0423L60.9201 15.2418L57.7783 4.88803H53.6547L58.446 19.2287H63.3747ZM79.2814 13.3907C79.2814 13.7026 79.2617 14.0145 79.2225 14.3264H71.9374C71.9767 14.9502 72.1403 15.4181 72.4283 15.73C72.7294 16.0283 73.109 16.1775 73.5672 16.1775C74.2087 16.1775 74.6669 15.8791 74.9418 15.2825H79.0458C78.8756 16.069 78.5417 16.7742 78.0443 17.398C77.5599 18.0082 76.9447 18.4896 76.1985 18.8422C75.4523 19.1948 74.6276 19.3711 73.7243 19.3711C72.6378 19.3711 71.6691 19.1338 70.8181 18.6591C69.9803 18.1845 69.3192 17.5065 68.8349 16.625C68.3636 15.7435 68.128 14.7061 68.128 13.5128C68.128 12.3194 68.3636 11.2888 68.8349 10.4209C69.3062 9.53943 69.9607 8.86139 70.7985 8.38676C71.6494 7.91213 72.6247 7.67481 73.7243 7.67481C74.8109 7.67481 75.773 7.90535 76.6108 8.36642C77.4487 8.82749 78.1032 9.49197 78.5745 10.3599C79.0457 11.2142 79.2814 12.2245 79.2814 13.3907ZM74.8829 11.2549C75.197 11.5261 75.3541 11.9058 75.3541 12.394H71.957C72.0487 11.8787 72.245 11.4922 72.5461 11.2345C72.8472 10.9633 73.2334 10.8277 73.7047 10.8277C74.176 10.8277 74.5687 10.9701 74.8829 11.2549ZM85.687 8.28504C85.0717 8.66474 84.5481 9.18006 84.1161 9.83098V7.81719H80.2674V19.2287H84.1161V14.245C84.1161 13.4043 84.319 12.8144 84.7248 12.4754C85.1306 12.1363 85.7525 11.9668 86.5903 11.9668H87.6703V7.71548C86.9634 7.71548 86.3023 7.90534 85.687 8.28504ZM87.8325 13.5128C87.8325 12.333 88.0354 11.3023 88.4413 10.4209C88.8602 9.53943 89.4296 8.86139 90.1496 8.38675C90.8696 7.91212 91.6682 7.67481 92.5452 7.67481C93.2521 7.67481 93.8805 7.83076 94.4303 8.14266C94.9932 8.441 95.4318 8.85461 95.746 9.38348V4.1761H99.6143V19.2287H95.746V17.6421C95.4449 18.1709 95.0194 18.5913 94.4696 18.9032C93.9198 19.2151 93.2718 19.3711 92.5256 19.3711C91.6485 19.3711 90.85 19.1338 90.13 18.6591C89.4231 18.1845 88.8602 17.5064 88.4413 16.625C88.0354 15.73 87.8325 14.6926 87.8325 13.5128ZM95.1765 11.7838C95.5692 12.2041 95.7656 12.7805 95.7656 13.5128C95.7656 14.2586 95.5692 14.8417 95.1765 15.2621C94.7969 15.6825 94.3256 15.8927 93.7627 15.8927C93.1867 15.8927 92.7089 15.6825 92.3292 15.2621C91.9496 14.8282 91.7598 14.2451 91.7598 13.5128C91.7598 12.7669 91.9496 12.1906 92.3292 11.7838C92.7089 11.3634 93.1867 11.1532 93.7627 11.1532C94.3256 11.1532 94.7969 11.3634 95.1765 11.7838ZM111.684 14.3264C111.724 14.0145 111.743 13.7026 111.743 13.3907C111.743 12.2245 111.508 11.2142 111.036 10.3599C110.565 9.49197 109.911 8.82749 109.073 8.36642C108.235 7.90535 107.273 7.67481 106.186 7.67481C105.087 7.67481 104.111 7.91213 103.261 8.38676C102.423 8.86139 101.768 9.53943 101.297 10.4209C100.826 11.2888 100.59 12.3194 100.59 13.5128C100.59 14.7061 100.826 15.7435 101.297 16.625C101.781 17.5065 102.442 18.1845 103.28 18.6591C104.131 19.1338 105.1 19.3711 106.186 19.3711C107.09 19.3711 107.914 19.1948 108.661 18.8422C109.407 18.4896 110.022 18.0082 110.506 17.398C111.004 16.7742 111.338 16.069 111.508 15.2825H107.404C107.129 15.8791 106.671 16.1775 106.029 16.1775C105.571 16.1775 105.191 16.0283 104.89 15.73C104.602 15.4181 104.439 14.9502 104.399 14.3264H111.684ZM107.816 12.394C107.816 11.9058 107.659 11.5261 107.345 11.2549C107.031 10.9701 106.638 10.8277 106.167 10.8277C105.695 10.8277 105.309 10.9633 105.008 11.2345C104.707 11.4922 104.511 11.8787 104.419 12.394H107.816ZM45.7954 15.913H50.4885V19.2287H41.554V16.0758L45.9329 11.1328H41.5933V7.81719H50.3314V10.9701L45.7954 15.913ZM40.5418 19.2287V7.81719H36.6735V13.9399C36.6735 14.5909 36.5098 15.1062 36.1826 15.4859C35.8553 15.852 35.4102 16.0351 34.8473 16.0351C34.2975 16.0351 33.8524 15.852 33.512 15.4859C33.1848 15.1062 33.0211 14.5909 33.0211 13.9399V7.81719H29.192V14.4485C29.192 15.9537 29.5586 17.1471 30.2917 18.0285C31.0378 18.8964 32.0524 19.3304 33.3353 19.3304C34.0815 19.3304 34.7426 19.1744 35.3186 18.8625C35.8946 18.5371 36.3462 18.1167 36.6735 17.6014V19.2287H40.5418ZM24.9258 9.83098C25.3578 9.18006 25.8814 8.66474 26.4967 8.28504C27.1119 7.90534 27.773 7.71548 28.4799 7.71548V11.9668H27.3999C26.5621 11.9668 25.9403 12.1363 25.5345 12.4754C25.1287 12.8144 24.9258 13.4043 24.9258 14.245V19.2287H21.0771V7.81719H24.9258V9.83098ZM7.15853 8.2647C6.59562 9.36313 6.31417 10.6175 6.31417 12.0278C6.31417 13.4517 6.59562 14.7197 7.15853 15.8317C7.73453 16.9301 8.54616 17.7912 9.59343 18.415C10.6407 19.0253 11.8451 19.3304 13.2065 19.3304C14.9345 19.3304 16.3876 18.8558 17.5658 17.9065C18.7439 16.9437 19.5032 15.6418 19.8436 14.001H15.7003C15.4516 14.5434 15.1047 14.957 14.6596 15.2418C14.2276 15.5266 13.7236 15.6689 13.1476 15.6689C12.2574 15.6689 11.544 15.3435 11.0072 14.6926C10.4836 14.0281 10.2218 13.1398 10.2218 12.0278C10.2218 10.9294 10.4836 10.0547 11.0072 9.40382C11.544 8.73933 12.2574 8.40709 13.1476 8.40709C13.7236 8.40709 14.2276 8.54948 14.6596 8.83426C15.1047 9.11904 15.4516 9.53264 15.7003 10.0751H19.8436C19.5032 8.43421 18.7439 7.13915 17.5658 6.18989C16.3876 5.22706 14.9345 4.74565 13.2065 4.74565C11.8451 4.74565 10.6407 5.05755 9.59343 5.68135C8.54616 6.29159 7.73453 7.15271 7.15853 8.2647ZM113.898 6.69182C114.206 6.69182 114.48 6.76543 114.72 6.91264C114.966 7.05419 115.157 7.25236 115.291 7.50715C115.431 7.75628 115.501 8.03655 115.501 8.34795C115.501 8.65936 115.431 8.94246 115.291 9.19725C115.157 9.45204 114.966 9.65304 114.72 9.80025C114.48 9.9418 114.206 10.0126 113.898 10.0126C113.59 10.0126 113.313 9.9418 113.067 9.80025C112.827 9.65304 112.636 9.45204 112.497 9.19725C112.362 8.94246 112.295 8.65936 112.295 8.34795C112.295 8.03655 112.362 7.75628 112.497 7.50715C112.636 7.25236 112.827 7.05419 113.067 6.91264C113.313 6.76543 113.59 6.69182 113.898 6.69182ZM114.611 9.60492C114.404 9.72948 114.166 9.79176 113.898 9.79176C113.629 9.79176 113.392 9.72948 113.185 9.60492C112.978 9.48035 112.815 9.30766 112.698 9.08684C112.586 8.86603 112.53 8.61973 112.53 8.34795C112.53 7.92897 112.656 7.58642 112.908 7.3203C113.159 7.04853 113.49 6.91264 113.898 6.91264C114.166 6.91264 114.404 6.97492 114.611 7.09949C114.824 7.22405 114.986 7.39674 115.098 7.61756C115.215 7.83271 115.274 8.07618 115.274 8.34795C115.274 8.61973 115.215 8.86603 115.098 9.08684C114.986 9.30766 114.824 9.48035 114.611 9.60492ZM114.477 8.33097C114.566 8.23471 114.611 8.11298 114.611 7.96577C114.611 7.79591 114.558 7.66569 114.452 7.57509C114.351 7.4845 114.211 7.43921 114.032 7.43921H113.294V9.2567H113.562V8.49234H113.822L114.343 9.2567L114.653 9.24821L114.116 8.49234C114.267 8.47535 114.387 8.42156 114.477 8.33097ZM113.562 8.26302H114.007C114.236 8.26302 114.351 8.16394 114.351 7.96577C114.351 7.86952 114.32 7.79874 114.259 7.75345C114.197 7.70249 114.113 7.67701 114.007 7.67701H113.562V8.26302Z" fill="#BBBDBF" style="fill:#BBBDBF;fill:color(display-p3 0.7333 0.7412 0.7490);fill-opacity:1;"/>
</svg>
