<svg width="82" height="23" viewBox="0 0 82 23" fill="none" xmlns="http://www.w3.org/2000/svg">
<path d="M21.367 0.834978H11.4156C11.3188 0.835433 11.2261 0.874242 11.1578 0.942916C11.0895 1.01159 11.0511 1.10454 11.0511 1.20143V6.15629H5.77704V1.20143C5.77576 1.10461 5.7369 1.01208 5.66873 0.943366C5.60047 0.874513 5.50769 0.835538 5.41076 0.834978H0.767839C0.672191 0.837225 0.581223 0.876824 0.514382 0.945305C0.44754 1.01379 0.410132 1.10572 0.410159 1.20143V5.84662C0.409977 5.89444 0.41933 5.94179 0.437672 5.98599C0.456051 6.03031 0.482923 6.07067 0.516774 6.10467C0.55123 6.13798 0.591427 6.16482 0.635427 6.1838C0.679763 6.20151 0.726988 6.21085 0.774716 6.21136H5.72892V11.1576C5.72892 11.2543 5.76732 11.3471 5.8357 11.4155C5.90404 11.4839 5.99678 11.5223 6.09345 11.5223H11.0476V16.7955H6.09345C5.9967 16.7968 5.90421 16.8356 5.83553 16.9039C5.80153 16.938 5.77465 16.9785 5.75635 17.0231C5.73805 17.0677 5.72871 17.1155 5.72892 17.1636V21.8002C5.72939 21.848 5.73873 21.8952 5.75644 21.9396C5.77542 21.9836 5.80221 22.0238 5.83553 22.0583C5.86953 22.0921 5.90984 22.1191 5.95417 22.1375C5.99823 22.156 6.04563 22.1653 6.09345 22.165H10.7364C10.7843 22.165 10.8317 22.1556 10.876 22.1373C10.9202 22.119 10.9604 22.0921 10.9944 22.0583C11.0625 21.9896 11.1014 21.8971 11.1027 21.8002V16.8471H16.0552C16.152 16.8471 16.2449 16.8087 16.3136 16.7404C16.3822 16.672 16.421 16.5792 16.4214 16.4824V11.8458C16.4205 11.7489 16.3816 11.6562 16.3132 11.5876C16.2447 11.5191 16.152 11.4802 16.0552 11.4793H11.1027V6.20445H21.3739C21.4705 6.20381 21.563 6.16554 21.6319 6.0978C21.7007 6.0295 21.7396 5.93671 21.7402 5.83975V1.19455C21.7375 1.09765 21.6969 1.00568 21.6271 0.938435C21.5573 0.871189 21.4639 0.834039 21.367 0.834978Z" fill="currentColor" style="fill:currentColor;fill:color(display-p3 0.7333 0.7412 0.7490);fill-opacity:1;"/>
<path d="M25.769 13.1997H23.2065V15.0411H25.5863V16.2769H23.2065V19.1001H21.7402V11.959H25.769V13.1997Z" fill="currentColor" style="fill:currentColor;fill:color(display-p3 0.7333 0.7412 0.7490);fill-opacity:1;"/>
<path d="M30.0284 13.5367C30.2303 13.5367 30.3954 13.5514 30.5236 13.5807L30.413 14.9776C30.2977 14.9451 30.1534 14.9288 29.9804 14.9288C29.5124 14.9288 29.147 15.0509 28.8842 15.2951C28.6246 15.5393 28.4948 15.8813 28.4948 16.3209V19.1001H27.0285V13.6393H28.1391L28.3554 14.5576H28.4275C28.6006 14.245 28.8249 13.9991 29.1006 13.82C29.3826 13.6311 29.6919 13.5367 30.0284 13.5367Z" fill="currentColor" style="fill:currentColor;fill:color(display-p3 0.7333 0.7412 0.7490);fill-opacity:1;"/>
<path d="M31.6438 14.0203C32.2655 13.6914 32.9466 13.5269 33.687 13.5269C34.4273 13.5269 34.9866 13.6881 35.3648 14.0105C35.7462 14.3329 35.9369 14.8164 35.9369 15.4612V19.1001H34.9129L34.6292 18.3577H34.5908C34.344 18.6768 34.0908 18.8966 33.8312 19.0171C33.5716 19.1376 33.2303 19.1978 32.8072 19.1978C32.2944 19.1978 31.8873 19.048 31.5861 18.7484C31.2912 18.4489 31.1438 18.0174 31.1438 17.4541C31.1438 16.8907 31.3409 16.4707 31.7351 16.1939C32.1293 15.9138 32.7335 15.7591 33.5475 15.7298L34.4802 15.7005V15.4612C34.4802 14.9076 34.2014 14.6308 33.6437 14.6308C33.2142 14.6308 32.7094 14.7627 32.1293 15.0265L31.6438 14.0203ZM32.6485 17.4785C32.6485 17.8985 32.8857 18.1086 33.3601 18.1086C33.703 18.1086 33.9754 18.0093 34.1773 17.8106C34.3793 17.612 34.4802 17.3482 34.4802 17.0193V16.57L33.9129 16.5895C33.4867 16.6025 33.1694 16.6807 32.961 16.824C32.7527 16.9672 32.6485 17.1854 32.6485 17.4785Z" fill="currentColor" style="fill:currentColor;fill:color(display-p3 0.7333 0.7412 0.7490);fill-opacity:1;"/>
<path d="M39.6339 19.1978C37.9609 19.1978 37.1244 18.2649 37.1244 16.399C37.1244 15.4742 37.3519 14.766 37.807 14.2743C38.2621 13.7826 38.9144 13.5367 39.7637 13.5367C40.3887 13.5367 40.9447 13.6604 41.4319 13.9079L41.004 15.0607C40.4848 14.8457 40.0714 14.7383 39.7637 14.7383C39.0009 14.7383 38.6195 15.2805 38.6195 16.3648C38.6195 17.4492 39.0009 17.9914 39.7637 17.9914C40.3021 17.9914 40.8037 17.8334 41.2685 17.5176V18.7924C41.0185 18.9552 40.7781 19.0611 40.5473 19.1099C40.3069 19.1685 40.0025 19.1978 39.6339 19.1978Z" fill="currentColor" style="fill:currentColor;fill:color(display-p3 0.7333 0.7412 0.7490);fill-opacity:1;"/>
<path d="M44.701 19.1978C43.028 19.1978 42.1915 18.2649 42.1915 16.399C42.1915 15.4742 42.4191 14.766 42.8742 14.2743C43.3293 13.7826 43.9815 13.5367 44.8308 13.5367C45.4558 13.5367 46.0119 13.6604 46.4991 13.9079L46.0712 15.0607C45.552 14.8457 45.1385 14.7383 44.8308 14.7383C44.068 14.7383 43.6866 15.2805 43.6866 16.3648C43.6866 17.4492 44.068 17.9914 44.8308 17.9914C45.3693 17.9914 45.8709 17.8334 46.3356 17.5176V18.7924C46.0856 18.9552 45.8452 19.0611 45.6145 19.1099C45.3741 19.1685 45.0696 19.1978 44.701 19.1978Z" fill="currentColor" style="fill:currentColor;fill:color(display-p3 0.7333 0.7412 0.7490);fill-opacity:1;"/>
<path d="M47.5231 12.2325C47.5231 11.7441 47.7891 11.4999 48.3211 11.4999C48.8531 11.4999 49.1192 11.7425 49.1192 12.2277C49.1192 12.4621 49.0519 12.6428 48.9172 12.7698C48.7826 12.8968 48.5839 12.9603 48.3211 12.9603C47.7891 12.9603 47.5231 12.7177 47.5231 12.2325ZM49.0519 19.1001H47.5856V13.6393H49.0519V19.1001Z" fill="currentColor" style="fill:currentColor;fill:color(display-p3 0.7333 0.7412 0.7490);fill-opacity:1;"/>
<path d="M52.9267 13.5367C53.4203 13.5367 53.861 13.6507 54.2488 13.8786C54.6398 14.1033 54.9411 14.4289 55.1526 14.8555C55.3674 15.2788 55.4747 15.764 55.4747 16.3111C55.4747 16.3274 55.4747 16.3437 55.4747 16.3599C55.4747 17.2489 55.244 17.9441 54.7824 18.4456C54.3209 18.9471 53.6783 19.1978 52.8546 19.1978C52.8418 19.1978 52.8274 19.1978 52.8114 19.1978C52.3178 19.1978 51.8755 19.0838 51.4845 18.8559C51.0967 18.6247 50.7954 18.2958 50.5807 17.8692C50.3691 17.4427 50.2634 16.9558 50.2634 16.4088C50.2634 16.3925 50.2634 16.3762 50.2634 16.3599C50.2634 15.4677 50.4925 14.7757 50.9508 14.284C51.4092 13.7858 52.0534 13.5367 52.8835 13.5367C52.8963 13.5367 52.9107 13.5367 52.9267 13.5367ZM53.7104 15.1388C53.5341 14.8718 53.252 14.7383 52.8642 14.7383C52.4764 14.7383 52.1944 14.8702 52.0181 15.1339C51.845 15.3977 51.7585 15.8064 51.7585 16.3599C51.7585 16.9103 51.8466 17.3222 52.0229 17.5957C52.2024 17.866 52.4844 18.0011 52.869 18.0011C53.2569 18.0011 53.5373 17.866 53.7104 17.5957C53.8866 17.3254 53.9748 16.9151 53.9748 16.3648C53.9748 15.8112 53.8866 15.4026 53.7104 15.1388Z" fill="currentColor" style="fill:currentColor;fill:color(display-p3 0.7333 0.7412 0.7490);fill-opacity:1;"/>
<path d="M59.7438 13.5367C60.3656 13.5367 60.8383 13.7093 61.162 14.0545C61.489 14.3964 61.6524 14.8913 61.6524 15.5393V19.1001H60.1861V15.9106C60.1861 15.5133 60.1156 15.217 59.9746 15.0216C59.8368 14.8262 59.6188 14.7285 59.3208 14.7285C58.9105 14.7285 58.6141 14.8685 58.4314 15.1486C58.2487 15.4286 58.1573 15.8894 58.1573 16.5309V19.1001H56.691V13.6393H57.8112L58.0083 14.3426H58.09C58.2503 14.0789 58.473 13.8786 58.7583 13.7419C59.0467 13.6051 59.3752 13.5367 59.7438 13.5367Z" fill="currentColor" style="fill:currentColor;fill:color(display-p3 0.7333 0.7412 0.7490);fill-opacity:1;"/>
<path d="M63.3062 14.0203C63.928 13.6914 64.6091 13.5269 65.3494 13.5269C66.0898 13.5269 66.6491 13.6881 67.0272 14.0105C67.4086 14.3329 67.5993 14.8164 67.5993 15.4612V19.1001H66.5753L66.2917 18.3577H66.2532C66.0064 18.6768 65.7532 18.8966 65.4936 19.0171C65.234 19.1376 64.8927 19.1978 64.4696 19.1978C63.9568 19.1978 63.5498 19.048 63.2485 18.7484C62.9537 18.4489 62.8062 18.0174 62.8062 17.4541C62.8062 16.8907 63.0033 16.4707 63.3976 16.1939C63.7918 15.9138 64.3959 15.7591 65.21 15.7298L66.1427 15.7005V15.4612C66.1427 14.9076 65.8638 14.6308 65.3061 14.6308C64.8767 14.6308 64.3719 14.7627 63.7918 15.0265L63.3062 14.0203ZM64.311 17.4785C64.311 17.8985 64.5482 18.1086 65.0225 18.1086C65.3654 18.1086 65.6379 18.0093 65.8398 17.8106C66.0417 17.612 66.1427 17.3482 66.1427 17.0193V16.57L65.5754 16.5895C65.1491 16.6025 64.8318 16.6807 64.6235 16.824C64.4151 16.9672 64.311 17.1854 64.311 17.4785Z" fill="currentColor" style="fill:currentColor;fill:color(display-p3 0.7333 0.7412 0.7490);fill-opacity:1;"/>
<path d="M70.58 19.1001H69.1137V11.4999H70.58V19.1001Z" fill="currentColor" style="fill:currentColor;fill:color(display-p3 0.7333 0.7412 0.7490);fill-opacity:1;"/>
<path d="M71.9165 18.3968C71.9165 18.1265 71.9886 17.9213 72.1329 17.7813C72.2771 17.6413 72.4838 17.5713 72.753 17.5713C73.0255 17.5713 73.2338 17.6429 73.378 17.7862C73.5254 17.9295 73.5992 18.133 73.5992 18.3968C73.5992 18.6573 73.5238 18.8624 73.3732 19.0122C73.2258 19.1587 73.019 19.232 72.753 19.232C72.4902 19.232 72.2851 19.1604 72.1377 19.0171C71.9902 18.8706 71.9165 18.6638 71.9165 18.3968Z" fill="currentColor" style="fill:currentColor;fill:color(display-p3 0.7333 0.7412 0.7490);fill-opacity:1;"/>
<path d="M77.1135 19.1978C75.4404 19.1978 74.6039 18.2649 74.6039 16.399C74.6039 15.4742 74.8315 14.766 75.2866 14.2743C75.7417 13.7826 76.3939 13.5367 77.2433 13.5367C77.8682 13.5367 78.4243 13.6604 78.9115 13.9079L78.4836 15.0607C77.9644 14.8457 77.5509 14.7383 77.2433 14.7383C76.4805 14.7383 76.0991 15.2805 76.0991 16.3648C76.0991 17.4492 76.4805 17.9914 77.2433 17.9914C77.7817 17.9914 78.2833 17.8334 78.748 17.5176V18.7924C78.498 18.9552 78.2577 19.0611 78.0269 19.1099C77.7865 19.1685 77.482 19.1978 77.1135 19.1978Z" fill="currentColor" style="fill:currentColor;fill:color(display-p3 0.7333 0.7412 0.7490);fill-opacity:1;"/>
<path d="M81.4643 19.1001H79.998V11.4999H81.4643V19.1001Z" fill="currentColor" style="fill:currentColor;fill:color(display-p3 0.7333 0.7412 0.7490);fill-opacity:1;"/>
</svg>
