<svg width="69" height="19" viewBox="0 0 69 19" fill="none" xmlns="http://www.w3.org/2000/svg">
<mask id="mask0_571_101" style="mask-type:luminance" maskUnits="userSpaceOnUse" x="0" y="0" width="69" height="19">
<path d="M68.7353 0.889526H0.134277V18.1104H68.7353V0.889526Z" fill="white" style="fill:white;fill-opacity:1;"/>
</mask>
<g mask="url(#mask0_571_101)">
<path d="M2.43685 8.56533C2.43685 7.11748 2.38981 3.96818 2.38981 3.59664C2.38981 2.40534 2.22811 2.08097 1.36666 2.08097H0.27295C0.155346 2.08097 0.134766 2.03379 0.134766 1.8952V1.33493C0.134766 1.21698 0.205328 1.17275 0.319991 1.17275C0.784525 1.17275 1.52837 1.24352 3.57761 1.24352C5.39164 1.24352 6.22956 1.17275 6.67058 1.17275C6.83229 1.17275 6.90285 1.19634 6.90285 1.2907V1.89815C6.90285 2.03674 6.85581 2.08392 6.71761 2.08392H5.52983C4.73894 2.08392 4.62134 2.48201 4.62134 3.41381C4.62134 3.74114 4.5743 6.81964 4.5743 8.12596V8.52404C4.5743 8.64199 4.64486 8.70981 4.8536 8.70981H13.4622C13.8121 8.70981 13.9267 8.66263 13.9267 8.35891V8.12596C13.9267 6.79606 13.8561 3.55241 13.8561 3.27228C13.8561 2.52623 13.7621 2.08097 13.0888 2.08097H11.8804C11.7628 2.08097 11.7187 2.03379 11.7187 1.91879V1.30839C11.7187 1.21403 11.7422 1.1698 11.8569 1.1698C12.3449 1.1698 13.3446 1.24057 14.9293 1.24057C16.514 1.24057 17.4666 1.1698 17.9077 1.1698C18.0693 1.1698 18.0929 1.21698 18.0929 1.35557V1.91584C18.0929 2.05443 18.0457 2.07802 17.9077 2.07802H16.8609C16.1877 2.07802 16.1171 2.47611 16.1171 3.31355C16.1171 3.64087 16.07 7.58339 16.07 8.44737V9.2406C16.07 9.98663 16.1171 14.4216 16.1405 15.7515C16.1405 16.5918 16.3729 16.9192 17.0726 16.9192H18.0958C18.2574 16.9192 18.3044 16.9664 18.3044 17.0813V17.6416C18.3044 17.7802 18.2574 17.8275 18.1193 17.8275C17.6783 17.8275 16.8874 17.7566 15.188 17.7566C13.1652 17.7566 12.4184 17.8275 11.7217 17.8275C11.6276 17.8275 11.5835 17.7566 11.5835 17.6653V17.0813C11.5835 16.9635 11.6305 16.9192 11.7687 16.9192H13.2358C13.7944 16.9192 13.865 16.4769 13.865 15.8458C13.8885 14.7489 13.9355 10.9922 13.9355 10.1518V9.82445C13.9355 9.56791 13.8179 9.54432 13.424 9.54432H4.90947C4.65368 9.54432 4.58312 9.61509 4.58312 9.77727V10.2668C4.58312 10.8978 4.60664 14.4894 4.63015 16.123C4.65368 16.6833 4.88595 16.9162 5.37399 16.9162H6.51475C6.65294 16.9162 6.69998 16.9635 6.69998 17.0784V17.6623C6.69998 17.7802 6.65294 17.8245 6.51475 17.8245C6.07374 17.8245 5.25933 17.7537 3.58349 17.7537C1.58129 17.7537 0.884488 17.8245 0.349392 17.8245C0.231789 17.8245 0.187687 17.7772 0.187687 17.6623V17.0548C0.187687 16.9605 0.258249 16.9162 0.349392 16.9162H1.72241C2.30455 16.9162 2.37511 16.356 2.37511 15.7957C2.39863 14.6988 2.44568 10.1724 2.44568 9.56496V8.56238L2.43685 8.56533Z" fill="currentColor" style="fill:currentColor;fill:color(display-p3 0.7333 0.7412 0.7490);fill-opacity:1;"/>
<path d="M29.0383 14.4009C27.8975 15.8016 26.2246 18.1104 23.2463 18.1104C21.0119 18.1104 18.3599 16.6862 18.3599 14.0028C18.3599 12.322 19.3125 10.9449 20.2444 10.0603C21.0353 9.29063 21.988 8.68319 22.9434 8.14651C21.3382 7.21469 20.5238 6.07058 20.5238 5.23017C20.5238 3.38719 22.92 1.24048 24.293 1.24048C26.0364 1.24048 27.5976 2.92128 27.5506 4.48413C27.5036 5.69608 25.9924 7.1911 24.9927 7.70419C26.6215 8.56818 28.7148 10.5498 29.9026 12.2541C30.6465 11.3223 32.1371 9.12845 32.2047 8.45023C32.2519 8.07573 31.9725 7.72779 31.4844 7.72779H31.0875C30.9493 7.72779 30.9259 7.65701 30.9259 7.5656V7.05252C30.9259 6.98174 30.9493 6.93455 31.0875 6.93455C31.2962 6.93455 32.5546 7.00533 33.3455 7.00533C34.207 7.00533 35.6034 6.93455 35.7416 6.93455C35.8798 6.93455 35.9034 7.00533 35.9034 7.09674V7.58624C35.9034 7.6806 35.8798 7.74842 35.7416 7.74842H35.3448C34.1805 7.74842 33.9483 7.84278 33.5777 8.42369C33.4161 8.68024 30.9964 12.2276 30.3672 12.8793C30.7171 13.2774 31.8108 14.5365 32.1341 14.8402C32.7164 15.4477 33.7865 16.5889 35.2743 16.5889C36.7619 16.5889 37.7409 14.9552 37.8321 14.7695C37.8791 14.6987 37.9261 14.6751 38.0173 14.7459L38.3672 14.9552C38.4142 14.9788 38.4142 15.0496 38.3672 15.1645C38.0173 15.9342 36.7383 18.1045 34.0394 18.1045C31.5256 18.1045 30.0379 15.6776 29.0383 14.395V14.4009ZM28.5267 13.8642C27.4566 12.3485 25.5954 9.87449 23.408 8.636C21.7086 9.57077 20.221 11.2958 20.268 13.2095C20.315 15.1469 22.3379 16.7097 24.1312 16.7097C26.4099 16.7097 27.9239 14.563 28.5296 13.8642H28.5267ZM22.1291 4.7849C22.1291 5.64889 23.408 6.67507 24.5018 7.35034C25.0839 6.90802 26.1776 6.20621 26.1776 4.41042C26.1776 3.61719 25.4572 2.07793 24.293 2.07793C23.1288 2.07793 22.1291 3.43141 22.1291 4.7849Z" fill="currentColor" style="fill:currentColor;fill:color(display-p3 0.7333 0.7412 0.7490);fill-opacity:1;"/>
<path d="M38.8233 15.9637C37.1473 14.3772 36.333 11.6702 36.333 9.42917C36.333 7.1881 37.0297 5.01781 38.7057 3.24559C39.8935 1.98647 41.9868 0.889526 44.5211 0.889526C46.638 0.889526 48.3844 1.68275 49.2194 2.17224C49.5222 2.35801 49.6368 2.33443 49.684 2.17224L49.8692 1.49697C49.9162 1.35838 49.9632 1.35838 50.1719 1.35838C50.3807 1.35838 50.4277 1.40556 50.4277 1.73288C50.4277 2.17519 50.8922 5.60757 51.01 6.25924C51.0334 6.3772 51.01 6.46861 50.9158 6.4922L50.5659 6.58656C50.4483 6.61015 50.4043 6.58656 50.3337 6.40079C50.0073 5.63116 49.4958 4.51062 48.5196 3.50804C47.5435 2.50545 46.3087 1.71223 44.4711 1.71223C40.3079 1.71223 38.6321 5.4218 38.6557 8.82763C38.6557 10.1811 39.0731 12.8173 40.8902 14.8254C42.4718 16.5976 43.7978 16.7863 45.3562 16.7863C47.9846 16.7863 50.0337 15.3385 51.104 13.8228C51.1745 13.7049 51.2216 13.6843 51.2892 13.7521L51.5921 13.985C51.6627 14.0322 51.7097 14.0794 51.6391 14.1944C50.2425 16.2231 47.9874 18.1133 44.7063 18.1133C41.9603 18.1133 40.2169 17.2493 38.8203 15.9667L38.8233 15.9637Z" fill="currentColor" style="fill:currentColor;fill:color(display-p3 0.7333 0.7412 0.7490);fill-opacity:1;"/>
<path d="M55.288 16.5946C53.6356 15.5922 51.8687 13.0709 51.8687 9.66505C51.8687 8.2408 52.242 6.02627 54.0325 3.85597C56.0789 1.35836 58.3839 0.892456 60.3361 0.892456C61.8032 0.892456 63.7084 1.19618 65.5489 2.73544C67.2483 4.20688 68.7359 6.49218 68.7359 9.71224C68.7359 11.4166 68.2008 13.1888 66.9925 14.8225C65.5723 16.7126 63.5026 18.1133 60.292 18.1133C59.1512 18.1133 57.1285 17.7388 55.2909 16.5976L55.288 16.5946ZM66.4574 9.89506C66.4574 4.78484 62.8293 1.77414 60.2449 1.77414C59.8951 1.77414 58.3133 1.49401 56.5698 3.15121C55.0116 4.6433 54.2443 7.00231 54.2443 8.91607C54.2443 15.0525 58.5015 17.2228 60.4802 17.2228C65.5989 17.2228 66.4604 11.9739 66.4604 9.89506H66.4574Z" fill="currentColor" style="fill:currentColor;fill:color(display-p3 0.7333 0.7412 0.7490);fill-opacity:1;"/>
</g>
</svg>
