<svg width="74" height="19" viewBox="0 0 74 19" fill="none" xmlns="http://www.w3.org/2000/svg">
<path d="M22.616 5.5878H20.0333V3.02937H10.172C8.1371 3.02937 6.91965 4.22273 6.91965 6.22311V6.73823L8.71973 4.9439L10.7111 6.91853L5.62394 11.9324L0.501953 6.86701L2.41509 4.98682L4.25865 6.8756C4.30213 6.25745 4.30213 5.72516 4.36301 5.19287C4.67606 2.54859 6.98052 0.470938 9.6763 0.453767C13.9113 0.428011 18.1376 0.445182 22.3725 0.445182L22.616 0.462353V5.5878Z" fill="#BBBDBF" style="fill:#BBBDBF;fill:color(display-p3 0.7333 0.7412 0.7490);fill-opacity:1;"/>
<path d="M16.1549 12.0268L21.1464 7.1074L21.2508 7.01296L26.4423 12.1298L24.4944 14.0529L22.6943 12.1642C22.6421 12.8167 22.6595 13.4176 22.5552 13.9928C22.3418 15.2748 21.6717 16.4393 20.6657 17.2767C19.6596 18.1141 18.3838 18.5693 17.068 18.5602H4.33691V13.4262H6.91965V15.9761H16.7897C18.8159 15.9761 20.0246 14.7827 20.0333 12.7823V12.1556L18.1724 14.0186L16.1549 12.0268Z" fill="#BBBDBF" style="fill:#BBBDBF;fill:color(display-p3 0.7333 0.7412 0.7490);fill-opacity:1;"/>
<path d="M63.2614 5.76809V4.3601H65.879V14.6539H63.2701V13.2545C62.5484 13.9499 61.8179 14.4479 60.9396 14.6883C58.5134 15.3322 56.0611 14.1302 55.1828 11.8122C54.5219 10.0436 54.5393 8.25784 55.4872 6.59228C56.9655 3.98234 60.4439 3.41571 62.7831 5.356L63.2614 5.76809ZM63.1919 9.56281C63.218 8.25784 62.5397 7.1675 61.4266 6.71248C59.3482 5.8797 57.2872 7.5195 57.5307 9.82037C57.696 11.3915 58.7743 12.499 60.1917 12.5505C61.9396 12.6192 63.1484 11.4172 63.1919 9.56281Z" fill="#BBBDBF" style="fill:#BBBDBF;fill:color(display-p3 0.7333 0.7412 0.7490);fill-opacity:1;"/>
<path d="M53.3218 10.3183H45.7215C45.6432 11.6834 46.9476 12.8167 48.4173 12.6879C49.1825 12.6192 49.7912 12.3015 50.2173 11.6405C50.2551 11.5871 50.3043 11.5425 50.3614 11.5099C50.4185 11.4773 50.4821 11.4574 50.5478 11.4516C51.4 11.4344 52.2522 11.443 53.1653 11.443C53.0081 12.0712 52.6976 12.6518 52.2609 13.1343C50.8087 14.7741 48.3825 15.3064 46.1737 14.4994C44.2431 13.7868 43.017 11.9581 42.9735 9.77745C42.9387 8.2836 43.2605 6.90136 44.3214 5.78526C45.6084 4.42878 47.252 4.05102 49.0521 4.27424C52.174 4.652 53.7827 7.18467 53.3914 10.1981C53.3703 10.2394 53.3471 10.2795 53.3218 10.3183ZM50.6608 8.55833C50.6521 7.26194 49.6347 6.36907 48.1999 6.36048C46.765 6.35189 45.7563 7.31345 45.7476 8.55833H50.6608Z" fill="#BBBDBF" style="fill:#BBBDBF;fill:color(display-p3 0.7333 0.7412 0.7490);fill-opacity:1;"/>
<path d="M34.4514 14.6539H31.8687V4.35151H34.4427V5.4676C34.9905 5.13278 35.4949 4.72068 36.0775 4.49746C38.2689 3.68185 41.443 4.62624 41.6256 8.14623C41.73 10.3011 41.643 12.4647 41.643 14.6539H39.069C39.0603 14.4994 39.0429 14.3534 39.0429 14.1989V9.17647C39.0431 8.9209 39.0257 8.6656 38.9907 8.41237C38.8864 7.58818 38.5037 6.9357 37.695 6.62662C36.8863 6.31755 35.9819 6.36048 35.2253 6.9357C34.6514 7.36496 34.4688 8.00028 34.4601 8.67852C34.4427 10.5072 34.4514 12.3445 34.4514 14.1731V14.6539Z" fill="#BBBDBF" style="fill:#BBBDBF;fill:color(display-p3 0.7333 0.7412 0.7490);fill-opacity:1;"/>
<path d="M68.5312 6.27462H67.2616V4.34292H68.5312V1.75874H71.1401V4.31717H73.088V6.26604H71.1922C71.174 6.38552 71.1624 6.5059 71.1575 6.62662V11.3486C71.1575 12.1384 71.3835 12.3874 72.1749 12.4217C72.688 12.4561 73.2097 12.4303 73.7402 12.4303V14.7398C72.6793 14.6883 71.6357 14.714 70.6183 14.5595C69.2704 14.362 68.5747 13.5121 68.5486 12.1556C68.5139 10.3698 68.5399 8.5755 68.5312 6.78975V6.27462Z" fill="#BBBDBF" style="fill:#BBBDBF;fill:color(display-p3 0.7333 0.7412 0.7490);fill-opacity:1;"/>
</svg>
