<svg width="106" height="21" viewBox="0 0 106 21" fill="none" xmlns="http://www.w3.org/2000/svg">
<path d="M33.5525 11.2885C33.5525 9.97786 33.23 8.9697 32.5853 8.264C31.9404 7.55828 31.0805 7.20542 30.0059 7.20542C29.4041 7.20542 28.9312 7.22704 28.5872 7.27024C28.2576 7.31345 27.9925 7.36385 27.7919 7.42146V14.5074C28.0355 14.709 28.3866 14.9034 28.8452 15.0907C29.3038 15.2779 29.8052 15.3715 30.3498 15.3715C30.9229 15.3715 31.4103 15.2707 31.8114 15.069C32.227 14.853 32.5638 14.565 32.8216 14.2049C33.0796 13.8305 33.2658 13.3984 33.3805 12.9087C33.495 12.4046 33.5525 11.8646 33.5525 11.2885ZM35.6373 11.2885C35.6373 12.1382 35.5228 12.9231 35.2935 13.6432C35.0786 14.3633 34.7561 14.9826 34.3262 15.5011C33.8964 16.0196 33.3662 16.4229 32.7356 16.7109C32.1195 16.999 31.4103 17.143 30.6076 17.143C29.9629 17.143 29.3898 17.0566 28.8882 16.8837C28.4009 16.7109 28.0355 16.5453 27.7919 16.3869V20.8804H25.793V5.99564C26.2658 5.88042 26.8534 5.758 27.5554 5.62838C28.272 5.48437 29.096 5.41235 30.0274 5.41235C30.8872 5.41235 31.6609 5.54917 32.3488 5.82282C33.0366 6.09646 33.6241 6.48532 34.1112 6.9894C34.5985 7.49348 34.9711 8.11276 35.2289 8.84729C35.5012 9.56739 35.6373 10.3811 35.6373 11.2885Z" fill="#BBBDBF" style="fill:#BBBDBF;fill:color(display-p3 0.7333 0.7412 0.7490);fill-opacity:1;"/>
<path d="M41.6212 17.0997C40.3889 17.0709 39.5147 16.8045 38.9988 16.3004C38.4829 15.7963 38.2251 15.0114 38.2251 13.9457V0.46516L40.2241 0.119507V13.6216C40.2241 13.9529 40.2528 14.2265 40.3101 14.4425C40.3674 14.6586 40.4604 14.8314 40.5894 14.961C40.7184 15.0906 40.8905 15.1914 41.1053 15.2635C41.3203 15.3211 41.5854 15.3715 41.9007 15.4147L41.6212 17.0997Z" fill="#BBBDBF" style="fill:#BBBDBF;fill:color(display-p3 0.7333 0.7412 0.7490);fill-opacity:1;"/>
<path d="M47.7458 15.4364C48.2187 15.4364 48.6342 15.4292 48.9924 15.4148C49.365 15.386 49.673 15.3428 49.9166 15.2852V11.9367C49.7733 11.8647 49.537 11.8071 49.2074 11.7639C48.8921 11.7062 48.5052 11.6774 48.0466 11.6774C47.7458 11.6774 47.4233 11.6991 47.0794 11.7423C46.7498 11.7855 46.4418 11.8791 46.1552 12.0231C45.8829 12.1527 45.6536 12.34 45.4673 12.5848C45.281 12.8152 45.188 13.1249 45.188 13.5137C45.188 14.2338 45.4172 14.7379 45.8757 15.026C46.3342 15.2996 46.9576 15.4364 47.7458 15.4364ZM47.5738 5.36926C48.3762 5.36926 49.0498 5.47727 49.5943 5.69332C50.1531 5.89494 50.5973 6.19019 50.9268 6.57904C51.2709 6.9535 51.5144 7.40718 51.6577 7.94006C51.801 8.45855 51.8728 9.03462 51.8728 9.66833V16.6894C51.7007 16.7182 51.4572 16.7614 51.1419 16.819C50.841 16.8623 50.497 16.9055 50.1101 16.9487C49.7233 16.9919 49.3004 17.0279 48.842 17.0567C48.3977 17.0999 47.9536 17.1215 47.5093 17.1215C46.8788 17.1215 46.2985 17.0567 45.7683 16.9271C45.238 16.7974 44.7796 16.5958 44.3926 16.3222C44.0057 16.0341 43.7049 15.6597 43.4898 15.1988C43.275 14.7379 43.1675 14.1834 43.1675 13.5353C43.1675 12.916 43.2893 12.3832 43.5328 11.9367C43.7909 11.4902 44.1347 11.1302 44.5646 10.8565C44.9944 10.5829 45.496 10.3812 46.0692 10.2516C46.6423 10.122 47.2442 10.0572 47.8748 10.0572C48.0754 10.0572 48.2832 10.0716 48.498 10.1004C48.713 10.1148 48.9136 10.1436 49.0999 10.1868C49.3004 10.2156 49.4725 10.2444 49.6158 10.2732C49.759 10.302 49.8593 10.3236 49.9166 10.338V9.77634C49.9166 9.44509 49.8808 9.12104 49.8093 8.8042C49.7375 8.47295 49.6085 8.18489 49.4222 7.94006C49.2359 7.68081 48.9781 7.47919 48.6485 7.33517C48.3332 7.17675 47.9176 7.09753 47.4018 7.09753C46.7426 7.09753 46.1624 7.14795 45.6608 7.24875C45.1737 7.33516 44.8081 7.42877 44.5646 7.52959L44.3282 5.86613C44.5861 5.75093 45.0159 5.6429 45.6178 5.5421C46.2197 5.42687 46.8716 5.36926 47.5738 5.36926Z" fill="#BBBDBF" style="fill:#BBBDBF;fill:color(display-p3 0.7333 0.7412 0.7490);fill-opacity:1;"/>
<path d="M56.8798 5.6499H61.1143V7.33495H56.8798V12.5198C56.8798 13.0815 56.9228 13.5495 57.0088 13.924C57.0948 14.284 57.2237 14.5721 57.3957 14.7881C57.5677 14.9897 57.7826 15.1338 58.0406 15.2202C58.2984 15.3066 58.5995 15.3498 58.9433 15.3498C59.5452 15.3498 60.0253 15.285 60.3834 15.1554C60.756 15.0113 61.014 14.9105 61.1573 14.8529L61.5442 16.5164C61.3436 16.6172 60.9925 16.7396 60.4909 16.8836C59.9893 17.0421 59.4162 17.1213 58.7713 17.1213C58.0119 17.1213 57.3814 17.0277 56.8798 16.8404C56.3927 16.6388 55.9986 16.3436 55.6976 15.9547C55.3967 15.5658 55.1817 15.0906 55.0529 14.5289C54.9381 13.9528 54.8809 13.2903 54.8809 12.5414V2.5174L56.8798 2.17175V5.6499Z" fill="#BBBDBF" style="fill:#BBBDBF;fill:color(display-p3 0.7333 0.7412 0.7490);fill-opacity:1;"/>
<path d="M67.258 15.4364C67.7309 15.4364 68.1465 15.4292 68.5048 15.4148C68.8773 15.386 69.1854 15.3428 69.429 15.2852V11.9367C69.2857 11.8647 69.0492 11.8071 68.7196 11.7639C68.4045 11.7062 68.0176 11.6774 67.559 11.6774C67.258 11.6774 66.9357 11.6991 66.5918 11.7423C66.2622 11.7855 65.9541 11.8791 65.6676 12.0231C65.3953 12.1527 65.166 12.34 64.9797 12.5848C64.7934 12.8152 64.7002 13.1249 64.7002 13.5137C64.7002 14.2338 64.9295 14.7379 65.388 15.026C65.8466 15.2996 66.47 15.4364 67.258 15.4364ZM67.0862 5.36926C67.8886 5.36926 68.562 5.47727 69.1066 5.69332C69.6655 5.89494 70.1097 6.19019 70.4392 6.57904C70.7831 6.9535 71.0268 7.40718 71.1701 7.94006C71.3134 8.45855 71.385 9.03462 71.385 9.66833V16.6894C71.2131 16.7182 70.9694 16.7614 70.6543 16.819C70.3532 16.8623 70.0094 16.9055 69.6225 16.9487C69.2355 16.9919 68.8128 17.0279 68.3542 17.0567C67.9101 17.0999 67.4658 17.1215 67.0217 17.1215C66.3911 17.1215 65.8109 17.0567 65.2805 16.9271C64.7504 16.7974 64.2918 16.5958 63.9049 16.3222C63.5181 16.0341 63.2171 15.6597 63.0022 15.1988C62.7872 14.7379 62.6797 14.1834 62.6797 13.5353C62.6797 12.916 62.8017 12.3832 63.0452 11.9367C63.3031 11.4902 63.6471 11.1302 64.077 10.8565C64.5068 10.5829 65.0084 10.3812 65.5816 10.2516C66.1547 10.122 66.7566 10.0572 67.387 10.0572C67.5876 10.0572 67.7954 10.0716 68.0104 10.1004C68.2252 10.1148 68.426 10.1436 68.6123 10.1868C68.8128 10.2156 68.9849 10.2444 69.1281 10.2732C69.2714 10.302 69.3717 10.3236 69.429 10.338V9.77634C69.429 9.44509 69.3932 9.12104 69.3215 8.8042C69.2499 8.47295 69.1209 8.18489 68.9346 7.94006C68.7483 7.68081 68.4905 7.47919 68.1609 7.33517C67.8456 7.17675 67.43 7.09753 66.9142 7.09753C66.255 7.09753 65.6746 7.14795 65.1732 7.24875C64.6859 7.33516 64.3205 7.42877 64.077 7.52959L63.8404 5.86613C64.0985 5.75093 64.5283 5.6429 65.1302 5.5421C65.7319 5.42687 66.384 5.36926 67.0862 5.36926Z" fill="#BBBDBF" style="fill:#BBBDBF;fill:color(display-p3 0.7333 0.7412 0.7490);fill-opacity:1;"/>
<path d="M74.522 5.97404C74.9806 5.85882 75.5897 5.73641 76.3491 5.60678C77.1085 5.47716 77.9827 5.41235 78.9715 5.41235C79.8599 5.41235 80.5978 5.54198 81.1853 5.80121C81.7729 6.04606 82.2385 6.3989 82.5824 6.85977C82.9407 7.30624 83.1915 7.84634 83.3348 8.48002C83.478 9.11373 83.5498 9.81224 83.5498 10.5756V16.8837H81.5506V11.0076C81.5506 10.3163 81.5006 9.72582 81.4003 9.23614C81.3143 8.74647 81.1638 8.3504 80.9489 8.04796C80.7339 7.74552 80.4473 7.52948 80.089 7.39987C79.7309 7.25584 79.2866 7.18383 78.7564 7.18383C78.5414 7.18383 78.3193 7.19102 78.0901 7.20542C77.8608 7.21982 77.6387 7.24144 77.4239 7.27024C77.2231 7.28465 77.0368 7.30624 76.865 7.33505C76.7072 7.36385 76.5927 7.38547 76.5209 7.39987V16.8837H74.522V5.97404Z" fill="#BBBDBF" style="fill:#BBBDBF;fill:color(display-p3 0.7333 0.7412 0.7490);fill-opacity:1;"/>
<path d="M95.5808 16.5596C95.1223 16.6748 94.5133 16.7972 93.7539 16.9268C93.0087 17.0565 92.1418 17.1213 91.153 17.1213C90.2933 17.1213 89.5697 16.9989 88.9821 16.754C88.3946 16.4948 87.9218 16.1347 87.5635 15.6739C87.2052 15.213 86.9473 14.6729 86.7896 14.0536C86.632 13.4199 86.5532 12.7214 86.5532 11.9581V5.6499H88.5522V11.526C88.5522 12.8942 88.7672 13.8736 89.1971 14.4641C89.6269 15.0546 90.3506 15.3498 91.3679 15.3498C91.5829 15.3498 91.805 15.3426 92.0343 15.3282C92.2636 15.3138 92.4786 15.2994 92.6791 15.285C92.8797 15.2562 93.0588 15.2346 93.2165 15.2202C93.3884 15.1914 93.5101 15.1626 93.5819 15.1338V5.6499H95.5808V16.5596Z" fill="#BBBDBF" style="fill:#BBBDBF;fill:color(display-p3 0.7333 0.7412 0.7490);fill-opacity:1;"/>
<path d="M101.443 15.4364C102.26 15.4364 102.862 15.3284 103.248 15.1124C103.65 14.8964 103.85 14.5507 103.85 14.0754C103.85 13.5857 103.657 13.1969 103.27 12.9088C102.883 12.6208 102.245 12.2967 101.357 11.9367C100.927 11.7639 100.512 11.591 100.11 11.4182C99.7234 11.231 99.3867 11.0149 99.1 10.7701C98.8134 10.5253 98.5841 10.23 98.4123 9.88437C98.2403 9.5387 98.1543 9.11385 98.1543 8.60977C98.1543 7.61601 98.5198 6.83108 99.2505 6.25501C99.9814 5.66451 100.977 5.36926 102.238 5.36926C102.554 5.36926 102.869 5.39086 103.184 5.43407C103.499 5.46287 103.793 5.50608 104.065 5.56369C104.337 5.6069 104.574 5.6573 104.775 5.71491C104.99 5.77252 105.154 5.82294 105.269 5.86613L104.904 7.59442C104.689 7.47919 104.352 7.36397 103.893 7.24875C103.435 7.11914 102.883 7.05432 102.238 7.05432C101.679 7.05432 101.192 7.16954 100.777 7.39999C100.361 7.61601 100.153 7.96166 100.153 8.43693C100.153 8.68178 100.196 8.89781 100.282 9.08504C100.383 9.27226 100.526 9.44509 100.712 9.60353C100.913 9.74754 101.156 9.88437 101.443 10.014C101.73 10.1436 102.073 10.2804 102.475 10.4244C103.005 10.6261 103.478 10.8277 103.893 11.0293C104.309 11.2166 104.66 11.4398 104.947 11.6991C105.247 11.9583 105.477 12.2751 105.634 12.6496C105.792 13.0097 105.871 13.4561 105.871 13.989C105.871 15.026 105.484 15.8109 104.71 16.3438C103.951 16.8767 102.862 17.1431 101.443 17.1431C100.454 17.1431 99.6804 17.0567 99.1215 16.8838C98.5626 16.7254 98.183 16.603 97.9824 16.5166L98.3478 14.7883C98.5771 14.8747 98.9424 15.0044 99.444 15.1772C99.9454 15.35 100.612 15.4364 101.443 15.4364Z" fill="#BBBDBF" style="fill:#BBBDBF;fill:color(display-p3 0.7333 0.7412 0.7490);fill-opacity:1;"/>
<path d="M15.9788 0.162572C16.0434 0.205637 16.0864 0.248702 16.1294 0.291767C18.1298 3.13407 19.8076 6.32088 19.8076 10.5413C19.8076 14.7832 18.0653 17.97 16.1294 20.6401C16.0649 20.7046 16.0434 20.7693 15.9573 20.8338C15.8713 20.8985 15.6992 20.8768 15.6992 20.8768H13.8279C13.8279 20.8768 13.7633 20.8768 13.7418 20.8553C13.7203 20.8123 13.7418 20.7908 13.7633 20.7693C14.5162 19.2619 15.269 17.7331 15.8283 16.0105C16.366 14.3741 16.9037 12.5868 16.9468 10.4982C17.0113 8.21575 16.6886 6.83765 16.2369 5.37344C15.5486 3.17713 14.5807 1.43299 13.8064 0.291767C13.7418 0.205637 13.7418 0.184105 13.7633 0.141039C13.8064 0.119507 13.8709 0.119507 13.8709 0.119507H15.7207C15.7207 0.119507 15.9143 0.119507 15.9788 0.162572Z" fill="#BBBDBF" style="fill:#BBBDBF;fill:color(display-p3 0.7333 0.7412 0.7490);fill-opacity:1;"/>
<path d="M14.4731 3.99549C14.344 3.67249 12.9244 0.50721 12.8813 0.421081C12.8598 0.378015 12.8383 0.399549 12.8168 0.399549C12.7953 0.421081 12.7738 0.442613 12.7953 0.528744C12.9244 1.6915 12.9674 3.39258 12.6017 5.33051C12.3651 6.60092 12.064 7.76367 11.096 9.48629C10.2357 11.0366 9.11715 12.1779 8.06319 13.2114C6.96618 14.288 5.78315 15.1493 4.62164 15.9891C4.60013 16.0107 4.57861 16.0107 4.57861 16.0537C4.57861 16.0753 4.64314 16.1183 4.64314 16.1183L6.06279 16.8719C6.06279 16.8719 6.19184 16.9365 6.27789 16.9365C6.36391 16.915 6.40694 16.8935 6.47146 16.8719C9.0096 15.6015 11.5692 13.9005 13.2685 10.6921C14.258 8.81877 14.7957 6.96698 14.7527 5.17977C14.7097 4.66299 14.5806 4.27541 14.4731 3.99549Z" fill="#BBBDBF" style="fill:#BBBDBF;fill:color(display-p3 0.7333 0.7412 0.7490);fill-opacity:1;"/>
<path d="M11.8274 3.75864C11.8489 3.47872 11.9134 0.679488 11.9134 0.614891C11.9134 0.550293 11.8919 0.550293 11.8704 0.550293C11.8489 0.550293 11.8274 0.571827 11.8059 0.636424C11.5047 1.51926 10.924 2.76815 9.99908 4.0601C9.37529 4.89988 8.7515 5.65351 7.46094 6.55787C6.29941 7.37611 5.07335 7.8283 3.95486 8.19434C2.77183 8.58194 1.63182 8.8188 0.470291 9.0126C0.448781 9.0126 0.427271 9.0126 0.405762 9.03412C0.405762 9.05566 0.427271 9.09872 0.427271 9.09872L1.20162 10.1323C1.20162 10.1323 1.26615 10.2399 1.33068 10.2615C1.3952 10.283 1.43822 10.283 1.50275 10.283C3.78277 10.2615 6.25638 9.91695 8.60095 8.17282C9.97756 7.16079 11.01 5.99803 11.5908 4.68454C11.7629 4.3185 11.8059 3.9955 11.8274 3.75864Z" fill="#BBBDBF" style="fill:#BBBDBF;fill:color(display-p3 0.7333 0.7412 0.7490);fill-opacity:1;"/>
</svg>
