<svg width="36" height="20" viewBox="0 0 36 20" fill="none" xmlns="http://www.w3.org/2000/svg">
<path d="M2.4541 17.5371C2.61956 17.5305 2.78492 17.5579 2.93945 17.6172C3.04464 17.6598 3.13893 17.7266 3.21289 17.8125C3.27182 17.8831 3.31348 17.9671 3.33398 18.0566C3.35079 18.1309 3.36214 18.2063 3.36816 18.2822L3.0625 18.2812C3.06133 18.2018 3.0401 18.1235 3.00195 18.0537C2.96792 17.9952 2.92067 17.9447 2.86426 17.9072C2.8083 17.8699 2.74543 17.8436 2.67969 17.8291C2.61464 17.8142 2.54818 17.8059 2.48145 17.8057C2.42519 17.8064 2.36895 17.8119 2.31348 17.8213C2.25241 17.8308 2.19311 17.8507 2.13867 17.8799C2.08321 17.9105 2.03586 17.9541 2.00098 18.0068C1.9609 18.0704 1.9417 18.1447 1.94531 18.2197C1.94355 18.2632 1.95122 18.3069 1.96875 18.3467C1.98396 18.3791 2.00639 18.4089 2.0332 18.4326C2.05912 18.4552 2.08909 18.4728 2.12109 18.4854C2.15378 18.4986 2.18747 18.5099 2.22168 18.5186L2.89062 18.6709C2.96372 18.6874 3.03444 18.7129 3.10156 18.7461C3.23036 18.8088 3.33054 18.918 3.38086 19.0518C3.40954 19.1298 3.42362 19.2128 3.42188 19.2959C3.42636 19.4163 3.39591 19.5356 3.33496 19.6396C3.27964 19.7283 3.2034 19.8024 3.11328 19.8555C3.02132 19.909 2.9209 19.9473 2.81641 19.9678C2.62213 20.0069 2.42222 20.0111 2.22656 19.9795C2.15856 19.9678 2.09147 19.9483 2.02734 19.9229C1.97905 19.9038 1.93318 19.8793 1.89062 19.8496C1.85827 19.8264 1.82647 19.8011 1.79688 19.7744C1.70843 19.7 1.64158 19.6031 1.60352 19.4941C1.57343 19.3936 1.55807 19.2885 1.55859 19.1836H1.85938C1.85592 19.2748 1.8761 19.3661 1.91797 19.4473C1.9556 19.5114 2.00825 19.5663 2.07031 19.6074C2.13275 19.6495 2.20279 19.6799 2.27637 19.6963C2.35094 19.7137 2.42733 19.7223 2.50391 19.7227C2.5682 19.7218 2.63267 19.7163 2.69629 19.707C2.76533 19.6978 2.83303 19.679 2.89648 19.6504C2.95703 19.6234 3.01115 19.5829 3.05371 19.5322C3.09834 19.4743 3.12073 19.4021 3.11719 19.3291C3.11852 19.2768 3.11011 19.2241 3.09277 19.1748C3.07614 19.132 3.04801 19.0946 3.01172 19.0664C2.9655 19.0317 2.91332 19.0046 2.8584 18.9863C2.79391 18.9635 2.71416 18.9397 2.61914 18.916L2.13965 18.8057C2.09085 18.7939 2.043 18.7786 1.99609 18.7607C1.93713 18.7387 1.88203 18.7074 1.83301 18.668C1.77816 18.6233 1.73248 18.5686 1.69824 18.5068C1.65736 18.4286 1.63728 18.3411 1.64062 18.2529C1.64066 18.1622 1.65621 18.0719 1.68652 17.9863C1.71885 17.9017 1.76909 17.825 1.83398 17.7617C1.90635 17.6901 1.99332 17.6341 2.08887 17.5986C2.20544 17.5548 2.32954 17.5344 2.4541 17.5371ZM11.7402 17.627C12.0133 17.5171 12.3169 17.5082 12.5957 17.6025C12.7026 17.6409 12.8018 17.6993 12.8877 17.7734C12.9653 17.8417 13.0294 17.9241 13.0752 18.0166C13.1202 18.1057 13.1487 18.2027 13.1602 18.3018L12.8535 18.2998C12.8379 18.2082 12.8009 18.1211 12.7461 18.0459C12.7006 17.9861 12.6435 17.9357 12.5781 17.8984C12.5182 17.8645 12.4526 17.8413 12.3848 17.8291C12.3234 17.8178 12.2606 17.812 12.1982 17.8115C12.096 17.8106 11.9947 17.8307 11.9004 17.8701C11.8074 17.9094 11.7244 17.9687 11.6572 18.0439C11.5835 18.1284 11.5268 18.2265 11.4922 18.333C11.4498 18.4638 11.4299 18.6009 11.4326 18.7383C11.4321 18.8663 11.4459 18.9939 11.4727 19.1191C11.4942 19.2293 11.5371 19.3343 11.5996 19.4277C11.661 19.5148 11.7431 19.5857 11.8389 19.6328C11.9536 19.6861 12.0796 19.7111 12.2061 19.707C12.2654 19.706 12.3245 19.6986 12.3818 19.6836C12.4515 19.6651 12.5171 19.6334 12.5752 19.5908C12.6463 19.5383 12.7072 19.4725 12.7539 19.3975C12.8151 19.2962 12.8563 19.1841 12.875 19.0674H13.1816C13.1651 19.1967 13.1282 19.3226 13.0723 19.4404C13.027 19.5334 12.9676 19.6191 12.8965 19.6943C12.8354 19.7586 12.7645 19.813 12.6865 19.8555C12.6186 19.892 12.5467 19.9217 12.4727 19.9434C12.4104 19.9647 12.3456 19.9801 12.2803 19.9883C12.2242 19.9883 12.1804 19.9941 12.1523 19.9941C12.0221 19.9933 11.8929 19.9703 11.7705 19.9258C11.6433 19.8796 11.5277 19.806 11.4326 19.71C11.3271 19.6012 11.2458 19.4714 11.1943 19.3291C11.1303 19.1447 11.1004 18.95 11.1055 18.7549C11.1035 18.5876 11.1289 18.4208 11.1807 18.2617C11.2267 18.122 11.2995 17.9925 11.3955 17.8809C11.4896 17.7715 11.6079 17.6848 11.7402 17.627ZM15.3564 17.5977C15.6096 17.524 15.8787 17.5241 16.1318 17.5977C16.2385 17.6311 16.339 17.6825 16.4287 17.749C16.5112 17.8105 16.5843 17.8847 16.6436 17.9688C16.6998 18.0477 16.7465 18.133 16.7832 18.2227C16.8184 18.312 16.8449 18.4045 16.8613 18.499C16.8771 18.5871 16.8844 18.6772 16.8848 18.7666C16.8844 18.8559 16.8771 18.9453 16.8613 19.0332C16.8449 19.1277 16.8184 19.2203 16.7832 19.3096C16.7466 19.3992 16.6998 19.4846 16.6436 19.5635C16.5843 19.6475 16.5112 19.7217 16.4287 19.7832C16.3389 19.8496 16.2385 19.901 16.1318 19.9346C15.8787 20.0082 15.6096 20.0083 15.3564 19.9346C15.2498 19.901 15.1494 19.8497 15.0596 19.7832C14.9771 19.7217 14.9049 19.6474 14.8457 19.5635C14.7894 19.4845 14.7418 19.3993 14.7051 19.3096C14.67 19.2203 14.6444 19.1276 14.6279 19.0332C14.5953 18.8569 14.5953 18.6753 14.6279 18.499C14.6444 18.4046 14.67 18.3119 14.7051 18.2227C14.7418 18.1329 14.7894 18.0477 14.8457 17.9688C14.9049 17.8848 14.9771 17.8105 15.0596 17.749C15.1493 17.6824 15.2497 17.6311 15.3564 17.5977ZM19.4443 17.5986C19.5418 17.5968 19.6387 17.6136 19.7305 17.6465C19.8078 17.674 19.8789 17.7172 19.9385 17.7734C19.9935 17.826 20.0366 17.8896 20.0654 17.96C20.0938 18.0318 20.108 18.1083 20.1074 18.1855C20.1074 18.2281 20.1031 18.2708 20.0947 18.3125C20.085 18.3567 20.0693 18.3996 20.0479 18.4395C20.0231 18.4863 19.9908 18.5291 19.9531 18.5664C19.9071 18.6103 19.8541 18.6462 19.7959 18.6719C19.8353 18.6871 19.8784 18.7064 19.9229 18.7305C19.9741 18.756 20.0208 18.79 20.0615 18.8301C20.1083 18.8767 20.1463 18.9314 20.1719 18.9922C20.2045 19.0727 20.219 19.1593 20.2158 19.2461C20.2163 19.3371 20.199 19.4276 20.1641 19.5117C20.1297 19.5948 20.0773 19.6697 20.0117 19.7314C19.9401 19.7976 19.8557 19.8483 19.7637 19.8809C19.6533 19.9198 19.537 19.9395 19.4199 19.9375H18.4121V17.5986H19.4443ZM22.8721 17.5986C22.9666 17.5985 23.0609 17.6084 23.1533 17.6279C23.2407 17.6455 23.3243 17.6796 23.3994 17.7275C23.4728 17.7758 23.5331 17.8415 23.5742 17.9189C23.6222 18.0141 23.6453 18.1201 23.6416 18.2266C23.6433 18.3012 23.6334 18.3756 23.6123 18.4473C23.5813 18.5517 23.517 18.6435 23.4297 18.709C23.3934 18.7364 23.3555 18.7619 23.3164 18.7852C23.3499 18.7985 23.3832 18.814 23.415 18.8311C23.4487 18.8497 23.4788 18.8744 23.5029 18.9043C23.5319 18.9422 23.5533 18.9855 23.5664 19.0312C23.5847 19.0954 23.5947 19.1619 23.5967 19.2285L23.6162 19.6514C23.6143 19.6789 23.6143 19.7069 23.6162 19.7344C23.619 19.7557 23.6248 19.7764 23.6338 19.7959C23.6424 19.8141 23.655 19.8311 23.6699 19.8447C23.6876 19.8605 23.7075 19.8738 23.7285 19.8848V19.9375H23.3457C23.3327 19.8922 23.324 19.8456 23.3184 19.7988C23.3107 19.7418 23.3036 19.6833 23.2998 19.625C23.296 19.5666 23.2933 19.5117 23.292 19.4609C23.2907 19.4101 23.292 19.3732 23.292 19.3516C23.2918 19.3029 23.2886 19.2542 23.2812 19.2061C23.2738 19.1573 23.2539 19.111 23.2246 19.0713C23.1914 19.0283 23.1478 18.9946 23.0977 18.9736C23.0268 18.9463 22.9509 18.9335 22.875 18.9365H22.1104V19.9375L22.1055 19.9316H21.7891V17.5986H22.8721ZM6.80273 19.9316H6.45703L6.22559 19.2529L5.28027 19.251L5.03613 19.9307H4.70996L5.58984 17.5967H5.94922L6.80273 19.9316ZM8.55762 19.6523H9.74414V19.9316H8.24121V17.5986H8.55762V19.6523ZM30.1367 19.4834H30.1426V17.5986H30.4502V19.9316H30.0947L28.9043 18.0479H28.8984V19.9316H28.5918V17.5986H28.9658L30.1367 19.4834ZM27.1455 19.9307H26.8018L26.5693 19.251H25.6309L25.3867 19.9307H25.0605L25.9404 17.5967H26.2988L27.1455 19.9307ZM33.0703 17.5996C33.2114 17.5974 33.3513 17.625 33.4805 17.6816C33.5997 17.7352 33.7055 17.8146 33.79 17.9141C33.8781 18.019 33.9449 18.1401 33.9863 18.2705C34.0337 18.4196 34.0565 18.5761 34.0547 18.7324C34.0539 18.8695 34.0383 19.006 34.0078 19.1396C33.9779 19.2781 33.9225 19.4099 33.8447 19.5283C33.6723 19.7919 33.373 19.9449 33.0576 19.9307H32.1211V17.5996H33.0703ZM16.0859 17.8857C15.8685 17.7908 15.6207 17.7906 15.4033 17.8857C15.3051 17.9326 15.218 18.0004 15.1484 18.084C15.0755 18.1727 15.021 18.2751 14.9873 18.3848C14.9124 18.6333 14.9124 18.8989 14.9873 19.1475C15.021 19.2572 15.0755 19.3595 15.1484 19.4482C15.218 19.5318 15.3051 19.5996 15.4033 19.6465C15.6207 19.7416 15.8685 19.7415 16.0859 19.6465C16.1842 19.5998 16.2714 19.5319 16.3408 19.4482C16.4139 19.3595 16.4692 19.2572 16.5029 19.1475C16.5413 19.0243 16.5598 18.8956 16.5586 18.7666C16.5599 18.6375 16.5413 18.5081 16.5029 18.3848C16.4692 18.275 16.4138 18.1727 16.3408 18.084C16.2714 18.0004 16.1842 17.9324 16.0859 17.8857ZM18.7334 19.6611L18.7295 19.6631H19.4043C19.5385 19.6733 19.6717 19.6313 19.7764 19.5469C19.862 19.4666 19.9091 19.3534 19.9043 19.2363C19.9076 19.1667 19.8902 19.0975 19.8555 19.0371C19.8239 18.9869 19.7804 18.9449 19.7285 18.916C19.6741 18.8861 19.6143 18.866 19.5527 18.8574C19.4879 18.8474 19.422 18.8429 19.3564 18.8428H18.7334V19.6611ZM32.4414 19.6631H33.0498C33.2424 19.6697 33.4265 19.583 33.5439 19.4307C33.6799 19.2316 33.7448 18.9923 33.7285 18.752C33.7464 18.5158 33.6796 18.2814 33.54 18.0898C33.4132 17.9424 33.2259 17.8603 33.0312 17.8682H32.4414V19.6631ZM5.37891 18.9717H6.10547L5.76074 17.9443H5.75391L5.37891 18.9717ZM25.7295 18.9717H26.4551L26.1104 17.9443H26.1035L25.7295 18.9717ZM22.1133 18.6572L22.1055 18.6621H22.8389C22.8969 18.662 22.9555 18.6565 23.0127 18.6465C23.0666 18.6377 23.1183 18.6185 23.1641 18.5889C23.2108 18.5567 23.2484 18.5127 23.2734 18.4619C23.3313 18.3268 23.3313 18.1732 23.2734 18.0381C23.2481 17.9906 23.2105 17.9508 23.165 17.9219C23.1236 17.8963 23.0767 17.8793 23.0283 17.873C22.9863 17.8671 22.9438 17.864 22.9014 17.8633H22.1133V18.6572ZM19.3018 17.8682H18.7285V18.5908L18.7295 18.5869H19.2998C19.4247 18.5935 19.5493 18.5656 19.6592 18.5059C19.7517 18.4371 19.8008 18.3242 19.7871 18.21C19.7931 18.1125 19.7514 18.0181 19.6758 17.9561C19.5637 17.8876 19.4327 17.8566 19.3018 17.8682ZM16.3584 7.33984H3.77344C2.4518 7.34019 2.5425 8.94494 3.77344 8.94531H13.6348C15.8859 9.03311 16.8144 10.0841 16.8145 12.5283C16.8145 14.9726 16.0056 16.1331 13.6348 16.3164H0V13.4316H13.0879C14.4739 13.4314 14.382 11.8743 13.0879 11.874H3.5C1.20743 11.8739 0.000990597 10.5498 0.000976562 8.19727C0.000976562 5.50142 1.34731 4.50206 3.5 4.50195L16.3584 4.50098V7.33984ZM20.5146 4.53418H30.1572C33.7057 4.53418 35.3115 6.4072 35.3115 10.123C35.3115 14.2389 34.3152 16.3164 30.3184 16.3164H17.3564V0H20.5146V4.53418ZM20.5605 7.35254V13.4512H30.2686C31.9174 13.451 32.29 12.5539 32.29 10.4014C32.29 8.20377 31.6661 7.35067 29.8779 7.35059L20.5605 7.35254ZM15.8633 1.50098C15.9665 1.4969 16.0695 1.51311 16.166 1.5498C16.2323 1.57773 16.2912 1.62141 16.3369 1.67676C16.3736 1.72084 16.3994 1.77327 16.4121 1.8291C16.4227 1.87551 16.4298 1.92326 16.4336 1.9707L16.2607 1.96387C16.2609 1.91643 16.2496 1.86967 16.2285 1.82715C16.2074 1.79062 16.1786 1.75894 16.1436 1.73535C16.1086 1.71237 16.0692 1.69642 16.0283 1.6875C15.9867 1.67807 15.9441 1.67365 15.9014 1.67383C15.8664 1.67411 15.8314 1.67698 15.7969 1.68262C15.7586 1.68855 15.7215 1.70044 15.6875 1.71875C15.6533 1.73741 15.6234 1.76463 15.6016 1.79688C15.5781 1.83488 15.5662 1.87921 15.5674 1.92383C15.5665 1.95073 15.5721 1.97733 15.583 2.00195C15.5924 2.02218 15.6055 2.04074 15.6221 2.05566C15.6383 2.06963 15.6568 2.08101 15.6768 2.08887C15.6974 2.09705 15.7187 2.10409 15.7402 2.10938L16.1582 2.2041C16.2023 2.2148 16.2456 2.23045 16.2861 2.25098C16.3665 2.28978 16.4284 2.35818 16.46 2.44141C16.4778 2.49007 16.4874 2.54193 16.4863 2.59375C16.4895 2.66918 16.4706 2.74427 16.4326 2.80957C16.398 2.86481 16.3503 2.91129 16.2939 2.94434C16.2363 2.97787 16.1729 3.00195 16.1074 3.01465C15.9859 3.03934 15.8608 3.04212 15.7383 3.02246C15.6947 3.01558 15.6515 3.00419 15.6104 2.98828C15.5803 2.97645 15.5519 2.96082 15.5254 2.94238C15.505 2.92791 15.4853 2.91223 15.4668 2.89551C15.409 2.84983 15.3654 2.78866 15.3398 2.71973C15.3209 2.65669 15.3112 2.59119 15.3115 2.52539H15.4971C15.4949 2.58259 15.5079 2.63955 15.5342 2.69043C15.5571 2.73195 15.5898 2.76795 15.6289 2.79492C15.6674 2.82122 15.7104 2.8401 15.7559 2.85059C15.8026 2.86142 15.8505 2.86705 15.8984 2.86719C15.9385 2.86685 15.9789 2.86398 16.0186 2.8584C16.0625 2.85292 16.1051 2.84033 16.1455 2.82227C16.1834 2.80551 16.2175 2.78073 16.2441 2.74902C16.272 2.71277 16.2856 2.66768 16.2832 2.62207C16.2841 2.58925 16.2795 2.55636 16.2686 2.52539C16.2581 2.49835 16.2397 2.47487 16.2168 2.45703C16.188 2.43558 16.1562 2.41841 16.1221 2.40723C16.0822 2.39286 16.0318 2.37862 15.9717 2.36426L15.6719 2.2959C15.6416 2.28849 15.6121 2.27874 15.583 2.26758C15.5461 2.25369 15.5111 2.23379 15.4805 2.20898C15.4465 2.18128 15.4178 2.14763 15.3965 2.10938C15.371 2.06088 15.3592 2.00587 15.3613 1.95117C15.3612 1.8947 15.37 1.83848 15.3887 1.78516C15.4074 1.73099 15.4385 1.68178 15.4785 1.64062C15.5229 1.59624 15.5761 1.56158 15.6348 1.53906C15.7076 1.51193 15.7855 1.49901 15.8633 1.50098ZM10.6455 1.54688C10.8162 1.47767 11.0063 1.47187 11.1807 1.53125C11.2473 1.55532 11.3088 1.59144 11.3623 1.6377C11.4108 1.68036 11.4507 1.73226 11.4795 1.79004C11.5076 1.84563 11.526 1.90593 11.5332 1.96777L11.3311 1.97559C11.3205 1.91956 11.2975 1.86626 11.2637 1.82031C11.2354 1.78282 11.1998 1.75116 11.1592 1.72754C11.1196 1.70575 11.0759 1.69134 11.0312 1.68457C10.9931 1.67744 10.9539 1.67428 10.915 1.67383C10.8514 1.67352 10.7882 1.68536 10.7295 1.70996C10.6715 1.73468 10.6199 1.77224 10.5781 1.81934C10.5319 1.87189 10.4964 1.93356 10.4746 2C10.4478 2.08188 10.435 2.16779 10.4365 2.25391C10.4359 2.33451 10.4443 2.41526 10.4609 2.49414C10.4749 2.56299 10.5024 2.62842 10.542 2.68652C10.5806 2.74059 10.6326 2.7843 10.6924 2.81348C10.7641 2.84666 10.8428 2.86361 10.9219 2.86133C10.9588 2.86069 10.9955 2.85515 11.0312 2.8457C11.0771 2.83473 11.121 2.81471 11.1592 2.78711C11.2038 2.75231 11.2412 2.70909 11.2695 2.66016C11.3075 2.59699 11.3331 2.52684 11.3447 2.4541H11.5361C11.5257 2.53512 11.5019 2.61469 11.4668 2.68848C11.4387 2.74694 11.4018 2.8013 11.3574 2.84863C11.3205 2.88818 11.2776 2.92164 11.2305 2.94824C11.1899 2.97062 11.1467 2.98899 11.1025 3.00293C11.0644 3.01444 11.025 3.02271 10.9854 3.02637H10.9062C10.8239 3.02614 10.7424 3.01069 10.665 2.98242C10.5855 2.95378 10.5127 2.90847 10.4531 2.84863C10.3869 2.78013 10.3357 2.69801 10.3037 2.6084C10.2636 2.49334 10.245 2.37176 10.248 2.25C10.247 2.14568 10.2626 2.04161 10.2949 1.94238C10.3236 1.85433 10.3702 1.77243 10.4307 1.70215C10.4897 1.63497 10.5632 1.58216 10.6455 1.54688ZM4.82324 1.53711C4.88217 1.53697 4.94133 1.5437 4.99902 1.55566C5.05348 1.56672 5.10551 1.58736 5.15234 1.61719C5.1983 1.64722 5.23676 1.68901 5.2627 1.7373C5.29245 1.79657 5.30702 1.86247 5.30469 1.92871C5.30594 1.97547 5.2992 2.02246 5.28613 2.06738C5.26649 2.13259 5.2265 2.18961 5.17188 2.23047C5.14903 2.24788 5.12526 2.26456 5.10059 2.2793C5.12144 2.28748 5.14228 2.29623 5.16211 2.30664C5.18316 2.31812 5.20177 2.33389 5.2168 2.35254C5.23478 2.37562 5.24776 2.40257 5.25586 2.43066C5.26753 2.47192 5.27444 2.51476 5.27539 2.55762L5.28809 2.82129C5.28691 2.83847 5.28693 2.85586 5.28809 2.87305C5.29 2.88603 5.29331 2.89922 5.29883 2.91113C5.30442 2.92268 5.31272 2.9338 5.32227 2.94238C5.33344 2.95227 5.34613 2.96089 5.35938 2.96777V3.00098H5.11719C5.10886 2.97273 5.10315 2.94329 5.09961 2.91406C5.09452 2.87852 5.09044 2.84192 5.08789 2.80469V2.63379C5.08768 2.60316 5.08495 2.57223 5.08008 2.54199C5.07558 2.51172 5.06398 2.48274 5.0459 2.45801C5.02539 2.43121 4.99796 2.41053 4.9668 2.39746C4.92233 2.3803 4.87478 2.37196 4.82715 2.37402H4.34375V2.99512H4.14648V1.53711H4.82324ZM1.55176 1.71191H0.736328V2.1582H1.4541V2.33398H0.736328V2.99512H0.539062V1.53711H1.55176V1.71191ZM3.37988 2.99512H3.16309L3.01758 2.57129H2.43164L2.2793 2.99512H2.0752L2.625 1.53613H2.84961L3.37988 2.99512ZM6.85742 2.77051L7.27246 1.53711H7.55371V2.99512H7.36621V1.76953L6.95508 2.99512H6.75879L6.34766 1.77246V2.99512H6.15625V1.53711H6.43945L6.85742 2.77051ZM9.60449 2.99512H9.38867L9.24316 2.57129H8.66602L8.5127 2.99512H8.30957L8.85938 1.53613H9.08398L9.60449 2.99512ZM12.4912 2.99512H12.376V1.53711H12.4912V2.99512ZM14.6543 2.99512H14.4453L14.2998 2.57129H13.7168L13.5537 2.99512H13.3496L13.9004 1.53613H14.124L14.6543 2.99512ZM2.49121 2.39648H2.94141L2.72559 1.75488L2.49121 2.39648ZM8.72461 2.39648H9.17578L8.95898 1.75488L8.72461 2.39648ZM13.7754 2.39648H14.2266L14.0098 1.75488L13.7754 2.39648ZM4.34375 2.20215H4.80273C4.83893 2.20225 4.87545 2.1984 4.91113 2.19238C4.94452 2.1867 4.97653 2.17472 5.00488 2.15625C5.03384 2.13702 5.05806 2.1108 5.07422 2.08008C5.11018 1.99568 5.11018 1.89983 5.07422 1.81543C5.05848 1.78547 5.03437 1.76051 5.00586 1.74219C4.97996 1.72618 4.95111 1.71591 4.9209 1.71191H4.34375V2.20215Z" fill="#BBBDBF" style="fill:#BBBDBF;fill:color(display-p3 0.7333 0.7412 0.7490);fill-opacity:1;"/>
</svg>
