<svg width="65" height="21" viewBox="0 0 65 21" fill="none" xmlns="http://www.w3.org/2000/svg">
<path opacity="0.5" d="M6.77232 12.3173C5.24096 11.1687 4.49968 8.6408 5.91318 6.6503C7.70904 4.12173 10.5436 4.5443 11.766 5.34102C11.7851 5.3543 12.1899 5.6153 12.6745 5.93137L13.0435 5.37895C13.5713 4.6013 13.157 3.61559 12.4738 3.33359C10.3199 2.44602 8.91068 1.82909 6.84989 1.04395C6.36175 0.837588 5.58768 1.02252 5.23025 1.55095C5.14875 1.67202 3.23375 4.48666 1.47989 7.05337C0.123179 9.0383 0.664536 11.6929 2.66075 13.0251C3.18682 13.3769 3.98725 13.8897 4.69318 14.359C5.02232 14.5765 5.45954 14.8641 5.85039 15.1195L6.97247 13.4601C7.17161 13.1423 7.12061 12.5766 6.77232 12.3173Z" fill="#BBBDBF" style="fill:#BBBDBF;fill:color(display-p3 0.7333 0.7412 0.7490);fill-opacity:1;"/>
<path opacity="0.5" d="M15.876 8.02216C15.3501 7.67416 14.5514 7.16309 13.8458 6.69766C13.5127 6.4763 13.0661 6.18487 12.6724 5.92944L11.5655 7.5908C11.3555 7.85951 11.4065 8.46509 11.7584 8.72051C13.2515 9.80266 14.0236 12.4062 12.6253 14.4139C10.8918 16.9022 7.9929 16.5387 6.77226 15.721C6.7534 15.7077 6.3389 15.4371 5.84518 15.1154L5.48554 15.649C4.95754 16.423 5.37004 17.4049 6.05325 17.6847C8.20483 18.5665 9.61261 19.1796 11.6733 19.9574C12.1596 20.1617 12.9356 19.9763 13.2933 19.4502C13.3745 19.3292 15.2933 16.5248 17.0493 13.9667C18.408 11.9882 17.8705 9.34473 15.876 8.02216Z" fill="#BBBDBF" style="fill:#BBBDBF;fill:color(display-p3 0.7333 0.7412 0.7490);fill-opacity:1;"/>
<path d="M12.625 14.4119C14.0234 12.4042 13.2532 9.80065 11.7582 8.7185C11.4063 8.46479 11.3553 7.85943 11.5653 7.59072L12.6722 5.92936C12.1879 5.61522 11.7848 5.35229 11.764 5.339C10.5425 4.54443 7.70683 4.11864 5.91119 6.6485C4.49676 8.64136 5.23933 11.1669 6.77033 12.3153C7.1164 12.5765 7.16954 13.1403 6.96512 13.4544L5.84304 15.1139C6.3359 15.4353 6.74933 15.7061 6.77033 15.7194C7.99076 16.5386 10.8896 16.9019 12.625 14.4119Z" fill="#BBBDBF" style="fill:#BBBDBF;fill:color(display-p3 0.7333 0.7412 0.7490);fill-opacity:1;"/>
<path d="M21.8653 13.4404C21.7041 13.2953 21.6235 13.1189 21.6235 12.8922C21.6235 12.4894 21.9619 12.1508 22.3811 12.1508C22.5585 12.1508 22.7358 12.2151 22.913 12.3764C23.4128 12.844 24.0093 13.1986 24.7669 13.1986C25.4602 13.1986 26.0405 12.9085 26.0405 12.3119C26.0405 11.7961 25.5729 11.5866 24.928 11.3288L24.1221 10.9902C22.8487 10.4584 22.0588 9.87808 22.0588 8.68515C22.0588 7.21836 23.284 6.39636 24.8475 6.39636C25.863 6.39636 26.7496 6.76708 27.3623 7.36343C27.5395 7.52458 27.6195 7.71808 27.6195 7.92765C27.6195 8.3305 27.298 8.65301 26.9103 8.65301C26.7329 8.65301 26.5889 8.57243 26.3782 8.41108C25.9593 8.08965 25.4111 7.86315 24.8138 7.86315C24.1851 7.86315 23.7337 8.10486 23.7337 8.62065C23.7337 9.05586 24.0552 9.26543 24.7815 9.55558L25.5393 9.86201C26.9751 10.4584 27.6994 11.0869 27.6994 12.2474C27.6994 13.8434 26.3453 14.6654 24.7654 14.6654C23.5418 14.6654 22.5423 14.1657 21.8653 13.4404Z" fill="#BBBDBF" style="fill:#BBBDBF;fill:color(display-p3 0.7333 0.7412 0.7490);fill-opacity:1;"/>
<path d="M37.7437 10.5389C37.7437 12.9246 36.0996 14.6654 33.875 14.6654C32.7464 14.6654 31.7962 14.2302 31.199 13.5049V13.795C31.199 14.3108 30.8442 14.6654 30.3769 14.6654C29.8771 14.6654 29.5225 14.2947 29.5225 13.795V3.09186C29.5225 2.59215 29.8932 2.22144 30.3769 2.22144C30.8605 2.22144 31.215 2.57608 31.215 3.09186V7.55694C31.8114 6.83158 32.7464 6.39636 33.8589 6.39636C36.0992 6.39636 37.7437 8.15329 37.7437 10.5389ZM36.0027 10.5229C36.0027 9.03979 34.9872 7.94372 33.5847 7.94372C32.15 7.94372 31.199 8.99136 31.199 10.5389C31.199 12.0702 32.1661 13.1181 33.5847 13.1181C34.9867 13.1181 36.0027 12.0218 36.0027 10.5229Z" fill="#BBBDBF" style="fill:#BBBDBF;fill:color(display-p3 0.7333 0.7412 0.7490);fill-opacity:1;"/>
<path d="M47.6577 10.5874C47.6577 12.8922 45.9812 14.6494 43.7889 14.6494C42.4026 14.6494 41.2256 13.9722 40.6453 12.973V17.1477C40.6453 17.3896 40.4681 17.5669 40.2424 17.5669C40.0168 17.5669 39.8394 17.374 39.8394 17.1477V6.94429C39.8394 6.70257 40.0168 6.52515 40.2424 6.52515C40.4681 6.52515 40.6453 6.70257 40.6453 6.94429V8.21779C41.2256 7.21836 42.4026 6.54143 43.7889 6.54143C45.9651 6.54143 47.6577 8.29836 47.6577 10.5874ZM46.8196 10.6034C46.8196 8.70122 45.4815 7.29893 43.7084 7.29893C41.8705 7.29893 40.6453 8.62065 40.6453 10.5874C40.6453 12.5699 41.8705 13.8916 43.7084 13.8916C45.4976 13.8916 46.8196 12.4894 46.8196 10.6034Z" fill="#BBBDBF" style="fill:#BBBDBF;fill:color(display-p3 0.7333 0.7412 0.7490);fill-opacity:1;"/>
<path d="M55.4598 9.60395V14.2462C55.4603 14.2993 55.4503 14.352 55.4302 14.4011C55.4101 14.4502 55.3805 14.4949 55.343 14.5324C55.3055 14.57 55.2608 14.5996 55.2117 14.6197C55.1626 14.6397 55.11 14.6498 55.0569 14.6493C54.8312 14.6493 54.6377 14.4719 54.6377 14.2462V13.3274C54.0734 14.1496 53.09 14.6493 51.8972 14.6493C50.3013 14.6493 49.2212 13.795 49.2212 12.5375C49.2212 11.2642 50.2852 10.459 51.9293 10.459H54.6377V9.5716C54.6377 8.13717 53.8478 7.29888 52.4947 7.29888C51.6726 7.29888 50.9793 7.63745 50.3516 8.34674C50.2387 8.45945 50.142 8.50788 50.013 8.50788C49.8202 8.50788 49.6423 8.34674 49.6423 8.16931C49.6423 8.0566 49.6905 7.94367 49.8195 7.7986C50.5289 6.96031 51.4639 6.54138 52.544 6.54138C54.3636 6.54138 55.4598 7.68567 55.4598 9.60395ZM54.6377 11.5865V11.1513H52.0099C50.7526 11.1513 50.0598 11.651 50.0598 12.5215C50.0598 13.3758 50.8173 13.94 51.978 13.94C53.461 13.94 54.6377 12.8922 54.6377 11.5865Z" fill="#BBBDBF" style="fill:#BBBDBF;fill:color(display-p3 0.7333 0.7412 0.7490);fill-opacity:1;"/>
<path d="M64.6804 6.94427C64.6804 6.9927 64.6639 7.04113 64.6318 7.1217L60.8597 15.6003C60.2632 16.9221 59.3932 17.5503 58.2161 17.5503C57.9904 17.5503 57.7489 17.5343 57.5389 17.4861C57.3461 17.4376 57.2168 17.2932 57.2168 17.1153C57.2175 17.0173 57.2575 16.9237 57.3268 16.8544C57.3961 16.7851 57.4897 16.7457 57.5875 16.7446C57.7161 16.7446 57.9582 16.8089 58.1518 16.8089C59.0547 16.8089 59.6668 16.3574 60.1018 15.3903L60.5532 14.3425L57.3618 7.13777C57.3297 7.0572 57.3132 7.0092 57.3132 6.94491C57.3132 6.89184 57.3232 6.8392 57.3432 6.79006C57.3632 6.74099 57.3925 6.69634 57.4304 6.65884C57.4675 6.62127 57.5125 6.59163 57.5618 6.57156C57.6104 6.55156 57.6632 6.54149 57.7161 6.54206C57.8011 6.54213 57.8832 6.56834 57.9525 6.61713C58.0218 6.66592 58.0739 6.73491 58.1025 6.81463L61.0047 13.3591L63.8747 6.81463C63.9389 6.63741 64.1004 6.54077 64.2775 6.54077C64.3839 6.54241 64.4854 6.58549 64.5611 6.66077C64.6361 6.73613 64.6789 6.83777 64.6804 6.94427Z" fill="#BBBDBF" style="fill:#BBBDBF;fill:color(display-p3 0.7333 0.7412 0.7490);fill-opacity:1;"/>
</svg>
