<svg width="55" height="21" viewBox="0 0 55 21" fill="none" xmlns="http://www.w3.org/2000/svg">
<mask id="mask0_599_276" style="mask-type:luminance" maskUnits="userSpaceOnUse" x="0" y="0" width="55" height="21">
<path d="M54.7056 0.5H0.705566V20.5H54.7056V0.5Z" fill="white" style="fill:white;fill-opacity:1;"/>
</mask>
<g mask="url(#mask0_599_276)">
<mask id="mask1_599_276" style="mask-type:luminance" maskUnits="userSpaceOnUse" x="0" y="0" width="55" height="21">
<path d="M54.7056 0.5H0.705566V20.5H54.7056V0.5Z" fill="white" style="fill:white;fill-opacity:1;"/>
</mask>
<g mask="url(#mask1_599_276)">
<path fill-rule="evenodd" clip-rule="evenodd" d="M36.0063 14.7386V4.22931C36.0063 0.662732 39.6987 -0.10313 42.3344 0.914119V2.91103C40.523 2.16184 38.4877 2.33451 38.4877 4.66011H41.4325V6.65525H38.4877V14.6996L36.0063 14.7386Z" fill="#BBBDBF" style="fill:#BBBDBF;fill:color(display-p3 0.7333 0.7412 0.7490);fill-opacity:1;"/>
<path fill-rule="evenodd" clip-rule="evenodd" d="M47.6968 3.10144H49.5305L49.9071 4.66153H52.1879V6.65525H50.1792V11.3001C50.1792 12.2304 50.575 12.6961 51.3668 12.6971H52.6242V14.6911H50.1694C48.5212 14.6911 47.6971 13.7951 47.6971 12.0032L47.6968 3.10144Z" fill="#BBBDBF" style="fill:#BBBDBF;fill:color(display-p3 0.7333 0.7412 0.7490);fill-opacity:1;"/>
<path d="M45.8056 4.66077H43.3242V14.6897H45.8056V4.66077Z" fill="#BBBDBF" style="fill:#BBBDBF;fill:color(display-p3 0.7333 0.7412 0.7490);fill-opacity:1;"/>
<path d="M45.8056 1.03113H43.3242V3.10144H45.8056V1.03113Z" fill="#BBBDBF" style="fill:#BBBDBF;fill:color(display-p3 0.7333 0.7412 0.7490);fill-opacity:1;"/>
<path fill-rule="evenodd" clip-rule="evenodd" d="M54.7054 14.6925C52.5251 18.1821 48.6861 20.4996 44.3144 20.4996C39.9427 20.4996 36.1061 18.1821 33.9248 14.6921C36.4868 17.0876 40.1931 18.5924 44.3144 18.5924C48.4356 18.5924 52.143 17.0865 54.7054 14.6921" fill="#BBBDBF" style="fill:#BBBDBF;fill:color(display-p3 0.7333 0.7412 0.7490);fill-opacity:1;"/>
<path d="M1.01189 12.3854V11.0153C1.72724 11.3061 2.55307 11.4513 3.4894 11.4511C4.18797 11.4511 4.53726 11.2231 4.53726 10.7671C4.53726 10.3509 4.30079 10.1449 3.83205 10.1449H2.66647C1.3592 10.1444 0.705566 9.47994 0.705566 8.1515C0.705566 6.78524 1.66029 6.10211 3.56973 6.10211C4.34712 6.09664 5.12 6.22221 5.85687 6.47369V7.84373C5.14083 7.55264 4.36576 7.40868 3.52642 7.40868C2.64691 7.40868 2.2096 7.63596 2.2096 8.09264C2.20821 8.50559 2.46365 8.7123 2.97594 8.71278H4.01577C5.44506 8.71278 6.16017 9.37617 6.1611 10.703C6.1611 12.0739 5.25004 12.7587 3.42792 12.7573C2.53235 12.7573 1.727 12.6333 1.01189 12.3854ZM7.29489 12.697V6.16167H8.55233L8.74235 6.98356C9.48074 6.43575 10.2156 6.16167 10.9429 6.16167C11.753 6.16167 12.3277 6.46046 12.667 7.05802C13.4871 6.45951 14.2569 6.16073 14.9764 6.16167C16.3345 6.16167 17.0134 6.98899 17.0131 8.64364V12.697H15.3865V8.58407C15.3865 7.85981 15.0846 7.49721 14.4808 7.49626C13.9974 7.49626 13.4922 7.77814 12.9652 8.3419V12.697H11.3421V8.60038C11.3421 7.86312 11.0437 7.49413 10.4469 7.49342C9.93132 7.49342 9.42288 7.7753 8.92153 8.33906V12.697H7.29489ZM18.1889 10.6622C18.1889 9.32239 19.1203 8.65274 20.9832 8.65321C21.4847 8.64789 21.9857 8.68896 22.4799 8.77589V8.34686C22.4799 7.76278 21.9218 7.4705 20.8057 7.47002C20.096 7.47109 19.3902 7.57606 18.71 7.78169V6.47334C19.3904 6.26885 20.0961 6.16438 20.8057 6.16309C23.0053 6.16309 24.1044 6.8805 24.103 8.31531V12.697H23.2815L22.5829 12.2361C22.035 12.5413 21.4195 12.7 20.7945 12.697C19.0572 12.697 18.1889 12.0187 18.1896 10.6622M22.4809 10.0204C22.0705 9.9378 21.5728 9.89773 20.9842 9.89773C20.2025 9.89655 19.8116 10.1442 19.8116 10.6406C19.8116 11.1369 20.1389 11.3862 20.7935 11.3883C21.4544 11.3883 22.0165 11.2184 22.4799 10.8785L22.4809 10.0204ZM25.6856 12.697V6.16167H26.9431L27.1436 6.99455C27.7092 6.44048 28.3065 6.16286 28.9354 6.16167V7.49342C28.33 7.49342 27.7886 7.7688 27.3112 8.31956V12.697H25.6856ZM29.941 5.104H31.1426L31.3895 6.16167H32.8838V7.4686H31.5677V10.4739C31.5677 11.0835 31.8271 11.3887 32.3459 11.3894H32.8838V12.697H31.5617C30.4812 12.697 29.941 12.1095 29.941 10.9345V5.104Z" fill="#BBBDBF" style="fill:#BBBDBF;fill:color(display-p3 0.7333 0.7412 0.7490);fill-opacity:1;"/>
</g>
</g>
</svg>
